<mxfile host="Electron" agent="Mozilla/5.0 (Windows NT 10.0; Win64; x64) AppleWebKit/537.36 (KHTML, like Gecko) draw.io/26.0.9 Chrome/128.0.6613.186 Electron/32.2.5 Safari/537.36" version="26.0.9">
  <diagram id="Q81owaVrs8D4fiqD0bCW" name="Page">
    <mxGraphModel dx="4043" dy="3255" grid="1" gridSize="10" guides="1" tooltips="1" connect="1" arrows="1" fold="1" page="1" pageScale="1" pageWidth="827" pageHeight="1169" math="0" shadow="0">
      <root>
        <mxCell id="51R45vY43iT_jdcogSZ9-0" />
        <mxCell id="51R45vY43iT_jdcogSZ9-1" parent="51R45vY43iT_jdcogSZ9-0" />
        <mxCell id="FaaPZUDsPdvEZ6YP6jF1-7" value="" style="rounded=0;whiteSpace=wrap;html=1;dashed=1;fillColor=none;" vertex="1" parent="51R45vY43iT_jdcogSZ9-1">
          <mxGeometry x="-1237" y="-1358.75" width="277" height="248.75" as="geometry" />
        </mxCell>
        <mxCell id="KoYR2n-7WcHbPKtnemoo-30" value="" style="rounded=0;whiteSpace=wrap;html=1;fillColor=none;dashed=1;" parent="51R45vY43iT_jdcogSZ9-1" vertex="1">
          <mxGeometry x="-2110" y="-2200" width="135" height="140" as="geometry" />
        </mxCell>
        <mxCell id="KoYR2n-7WcHbPKtnemoo-25" value="" style="rounded=0;whiteSpace=wrap;html=1;fillColor=none;dashed=1;" parent="51R45vY43iT_jdcogSZ9-1" vertex="1">
          <mxGeometry x="-2200" y="-1840" width="230" height="170" as="geometry" />
        </mxCell>
        <mxCell id="X_AoJ5oqezNbY4iK6CAJ-20" value="" style="rounded=0;whiteSpace=wrap;html=1;dashed=1;fillColor=none;" parent="51R45vY43iT_jdcogSZ9-1" vertex="1">
          <mxGeometry x="-1100" y="-1620" width="140" height="220" as="geometry" />
        </mxCell>
        <mxCell id="OpHWaJ8LRmHsNUjZXrtZ-11" value="" style="rounded=0;whiteSpace=wrap;html=1;fillColor=none;dashed=1;" parent="51R45vY43iT_jdcogSZ9-1" vertex="1">
          <mxGeometry x="-2030" y="-1450" width="380" height="300" as="geometry" />
        </mxCell>
        <mxCell id="VN3gT0sgjHmA_Leb3yui-65" value="" style="rounded=0;whiteSpace=wrap;html=1;fillColor=none;dashed=1;" parent="51R45vY43iT_jdcogSZ9-1" vertex="1">
          <mxGeometry x="-2250.62" y="-1600" width="140" height="150" as="geometry" />
        </mxCell>
        <mxCell id="VN3gT0sgjHmA_Leb3yui-54" value="" style="rounded=0;whiteSpace=wrap;html=1;fillColor=#FFFFCC;" parent="51R45vY43iT_jdcogSZ9-1" vertex="1">
          <mxGeometry x="-490" y="-2250" width="375" height="420" as="geometry" />
        </mxCell>
        <mxCell id="inivvCfBTA3O9-0yDfdd-6" value="" style="rounded=0;whiteSpace=wrap;html=1;fillColor=none;dashed=1;" parent="51R45vY43iT_jdcogSZ9-1" vertex="1">
          <mxGeometry x="-2400" y="-1029.25" width="400" height="289" as="geometry" />
        </mxCell>
        <mxCell id="U_GKicJxKMkryC1znsnu-7" value="" style="rounded=0;whiteSpace=wrap;html=1;dashed=1;fillColor=none;" parent="51R45vY43iT_jdcogSZ9-1" vertex="1">
          <mxGeometry x="-868.75" y="-1368.25" width="120" height="268.75" as="geometry" />
        </mxCell>
        <mxCell id="SQRwWHDyafC3yvhdYBZZ-72" value="" style="rounded=0;whiteSpace=wrap;html=1;dashed=1;fillColor=none;" parent="51R45vY43iT_jdcogSZ9-1" vertex="1">
          <mxGeometry x="-1103.68" y="-1980" width="140" height="160" as="geometry" />
        </mxCell>
        <mxCell id="EPvNuUSc4TI7V1zTzWjb-70" value="" style="rounded=0;whiteSpace=wrap;html=1;dashed=1;fillColor=none;" parent="51R45vY43iT_jdcogSZ9-1" vertex="1">
          <mxGeometry x="-1814" y="-2050" width="140" height="150" as="geometry" />
        </mxCell>
        <mxCell id="EPvNuUSc4TI7V1zTzWjb-54" value="" style="rounded=0;whiteSpace=wrap;html=1;fillColor=none;dashed=1;" parent="51R45vY43iT_jdcogSZ9-1" vertex="1">
          <mxGeometry x="-1880" y="-1111" width="230" height="230" as="geometry" />
        </mxCell>
        <mxCell id="qQbXcprjhp-LcYu3O835-0" value="Way&lt;br&gt;GeometryDao" style="shape=cylinder3;whiteSpace=wrap;html=1;boundedLbl=1;backgroundOutline=1;size=4.333333333333627;fillColor=#f5f5f5;strokeColor=#666666;fontColor=#333333;" parent="51R45vY43iT_jdcogSZ9-1" vertex="1">
          <mxGeometry x="-1742.45" y="-1260" width="80" height="40" as="geometry" />
        </mxCell>
        <mxCell id="mcuzn89M00Cm7jjjBw46-6" style="edgeStyle=orthogonalEdgeStyle;rounded=0;orthogonalLoop=1;jettySize=auto;html=1;entryX=0;entryY=0.5;entryDx=0;entryDy=0;entryPerimeter=0;" parent="51R45vY43iT_jdcogSZ9-1" source="n-T5ke-Z1MnUnC31zNyZ-3" target="n-T5ke-Z1MnUnC31zNyZ-6" edge="1">
          <mxGeometry relative="1" as="geometry">
            <Array as="points">
              <mxPoint x="-1911" y="-1184" />
            </Array>
          </mxGeometry>
        </mxCell>
        <mxCell id="mcuzn89M00Cm7jjjBw46-7" style="edgeStyle=orthogonalEdgeStyle;rounded=0;orthogonalLoop=1;jettySize=auto;html=1;entryX=0;entryY=0.5;entryDx=0;entryDy=0;entryPerimeter=0;" parent="51R45vY43iT_jdcogSZ9-1" source="n-T5ke-Z1MnUnC31zNyZ-3" target="n-T5ke-Z1MnUnC31zNyZ-5" edge="1">
          <mxGeometry relative="1" as="geometry">
            <Array as="points">
              <mxPoint x="-1911" y="-1225" />
            </Array>
          </mxGeometry>
        </mxCell>
        <mxCell id="mcuzn89M00Cm7jjjBw46-8" style="edgeStyle=orthogonalEdgeStyle;rounded=0;orthogonalLoop=1;jettySize=auto;html=1;entryX=0;entryY=0.5;entryDx=0;entryDy=0;entryPerimeter=0;" parent="51R45vY43iT_jdcogSZ9-1" source="n-T5ke-Z1MnUnC31zNyZ-3" target="n-T5ke-Z1MnUnC31zNyZ-4" edge="1">
          <mxGeometry relative="1" as="geometry">
            <Array as="points">
              <mxPoint x="-1911" y="-1265" />
            </Array>
          </mxGeometry>
        </mxCell>
        <mxCell id="n-T5ke-Z1MnUnC31zNyZ-3" value="ElementDao" style="rounded=0;whiteSpace=wrap;html=1;fillColor=#dae8fc;strokeColor=#6c8ebf;" parent="51R45vY43iT_jdcogSZ9-1" vertex="1">
          <mxGeometry x="-1924" y="-1350" width="80" height="40" as="geometry" />
        </mxCell>
        <mxCell id="n-T5ke-Z1MnUnC31zNyZ-4" value="NodeDao" style="shape=cylinder3;whiteSpace=wrap;html=1;boundedLbl=1;backgroundOutline=1;size=4.333333333333627;fillColor=#f5f5f5;strokeColor=#666666;fontColor=#333333;" parent="51R45vY43iT_jdcogSZ9-1" vertex="1">
          <mxGeometry x="-1891.5" y="-1280" width="68.5" height="30" as="geometry" />
        </mxCell>
        <mxCell id="n-T5ke-Z1MnUnC31zNyZ-5" value="WayDao" style="shape=cylinder3;whiteSpace=wrap;html=1;boundedLbl=1;backgroundOutline=1;size=4.333333333333627;fillColor=#f5f5f5;strokeColor=#666666;fontColor=#333333;" parent="51R45vY43iT_jdcogSZ9-1" vertex="1">
          <mxGeometry x="-1891.5" y="-1240" width="60" height="30" as="geometry" />
        </mxCell>
        <mxCell id="n-T5ke-Z1MnUnC31zNyZ-6" value="RelationDao" style="shape=cylinder3;whiteSpace=wrap;html=1;boundedLbl=1;backgroundOutline=1;size=4.333333333333627;fillColor=#f5f5f5;strokeColor=#666666;fontColor=#333333;" parent="51R45vY43iT_jdcogSZ9-1" vertex="1">
          <mxGeometry x="-1891.5" y="-1199" width="81" height="30" as="geometry" />
        </mxCell>
        <mxCell id="jhT8wK5zt7qmRpazY_14-0" value="NoteDao" style="shape=cylinder3;whiteSpace=wrap;html=1;boundedLbl=1;backgroundOutline=1;size=4.333333333333627;fillColor=#f5f5f5;strokeColor=#666666;fontColor=#333333;" parent="51R45vY43iT_jdcogSZ9-1" vertex="1">
          <mxGeometry x="-1779" y="-1950" width="70" height="30" as="geometry" />
        </mxCell>
        <mxCell id="Qy5qiiHPJYb9mzbqVUHA-17" style="edgeStyle=orthogonalEdgeStyle;rounded=0;jumpStyle=arc;jumpSize=8;orthogonalLoop=1;jettySize=auto;html=1;exitX=0.5;exitY=1;exitDx=0;exitDy=0;entryX=0.5;entryY=0;entryDx=0;entryDy=0;strokeColor=#000000;fontColor=#FF0000;" parent="51R45vY43iT_jdcogSZ9-1" source="XJun6wl4G3z7FE1YGOAI-0" target="zcpkFRRcYsidM-BZpb4--1" edge="1">
          <mxGeometry relative="1" as="geometry" />
        </mxCell>
        <mxCell id="Qy5qiiHPJYb9mzbqVUHA-18" style="edgeStyle=orthogonalEdgeStyle;rounded=0;jumpStyle=arc;jumpSize=8;orthogonalLoop=1;jettySize=auto;html=1;exitX=0.5;exitY=0;exitDx=0;exitDy=0;entryX=0.5;entryY=1;entryDx=0;entryDy=0;strokeColor=#000000;fontColor=#FF0000;" parent="51R45vY43iT_jdcogSZ9-1" source="XJun6wl4G3z7FE1YGOAI-0" target="Qy5qiiHPJYb9mzbqVUHA-12" edge="1">
          <mxGeometry relative="1" as="geometry" />
        </mxCell>
        <mxCell id="haxzHKYdSKyFWuCFPDV8-7" style="edgeStyle=orthogonalEdgeStyle;rounded=0;orthogonalLoop=1;jettySize=auto;html=1;entryX=1;entryY=0.5;entryDx=0;entryDy=0;" parent="51R45vY43iT_jdcogSZ9-1" source="XJun6wl4G3z7FE1YGOAI-0" target="haxzHKYdSKyFWuCFPDV8-0" edge="1">
          <mxGeometry relative="1" as="geometry">
            <mxPoint x="-1434" y="-1510" as="targetPoint" />
            <Array as="points">
              <mxPoint x="-1240" y="-1510" />
              <mxPoint x="-1240" y="-1412" />
            </Array>
          </mxGeometry>
        </mxCell>
        <mxCell id="KoYR2n-7WcHbPKtnemoo-47" style="edgeStyle=orthogonalEdgeStyle;rounded=0;orthogonalLoop=1;jettySize=auto;html=1;" parent="51R45vY43iT_jdcogSZ9-1" source="XJun6wl4G3z7FE1YGOAI-0" target="KoYR2n-7WcHbPKtnemoo-24" edge="1">
          <mxGeometry relative="1" as="geometry">
            <Array as="points">
              <mxPoint x="-1240" y="-1510" />
              <mxPoint x="-1240" y="-1850" />
            </Array>
          </mxGeometry>
        </mxCell>
        <mxCell id="XJun6wl4G3z7FE1YGOAI-0" value="Osm&lt;br&gt;QuestController" style="rounded=0;whiteSpace=wrap;html=1;fillColor=#dae8fc;strokeColor=#6c8ebf;shadow=1;" parent="51R45vY43iT_jdcogSZ9-1" vertex="1">
          <mxGeometry x="-1076" y="-1525" width="90" height="30" as="geometry" />
        </mxCell>
        <mxCell id="ZRk0zhL3pRTTiynzC3ml-3" style="edgeStyle=orthogonalEdgeStyle;rounded=0;orthogonalLoop=1;jettySize=auto;html=1;exitX=0.5;exitY=0;exitDx=0;exitDy=0;entryX=0.5;entryY=1;entryDx=0;entryDy=0;" parent="51R45vY43iT_jdcogSZ9-1" source="xdeHD7A79bCkGNLGMnPe-2" target="ZRk0zhL3pRTTiynzC3ml-2" edge="1">
          <mxGeometry relative="1" as="geometry" />
        </mxCell>
        <mxCell id="FaaPZUDsPdvEZ6YP6jF1-3" style="edgeStyle=orthogonalEdgeStyle;rounded=0;orthogonalLoop=1;jettySize=auto;html=1;entryX=1;entryY=0.25;entryDx=0;entryDy=0;" edge="1" parent="51R45vY43iT_jdcogSZ9-1" source="xdeHD7A79bCkGNLGMnPe-2" target="KoYR2n-7WcHbPKtnemoo-24">
          <mxGeometry relative="1" as="geometry" />
        </mxCell>
        <mxCell id="xdeHD7A79bCkGNLGMnPe-2" value="OsmNote&lt;br&gt;QuestController" style="rounded=0;whiteSpace=wrap;html=1;fillColor=#dae8fc;fontStyle=0;strokeColor=#6c8ebf;shadow=1;" parent="51R45vY43iT_jdcogSZ9-1" vertex="1">
          <mxGeometry x="-1078.68" y="-1890" width="90" height="40" as="geometry" />
        </mxCell>
        <mxCell id="EPvNuUSc4TI7V1zTzWjb-64" style="edgeStyle=orthogonalEdgeStyle;rounded=0;orthogonalLoop=1;jettySize=auto;html=1;exitX=0.5;exitY=1;exitDx=0;exitDy=0;entryX=0.5;entryY=0;entryDx=0;entryDy=0;endArrow=open;endFill=0;" parent="51R45vY43iT_jdcogSZ9-1" source="mesm_kIDOi0JZ5hnJyv2-9" target="jhT8wK5zt7qmRpazY_14-0" edge="1">
          <mxGeometry relative="1" as="geometry" />
        </mxCell>
        <mxCell id="mesm_kIDOi0JZ5hnJyv2-9" value="NoteController" style="rounded=0;whiteSpace=wrap;html=1;fillColor=#dae8fc;strokeColor=#6c8ebf;shadow=1;" parent="51R45vY43iT_jdcogSZ9-1" vertex="1">
          <mxGeometry x="-1789" y="-2030" width="90" height="40" as="geometry" />
        </mxCell>
        <mxCell id="OpHWaJ8LRmHsNUjZXrtZ-9" style="edgeStyle=orthogonalEdgeStyle;rounded=0;orthogonalLoop=1;jettySize=auto;html=1;" parent="51R45vY43iT_jdcogSZ9-1" source="mesm_kIDOi0JZ5hnJyv2-11" target="n-T5ke-Z1MnUnC31zNyZ-3" edge="1">
          <mxGeometry relative="1" as="geometry">
            <Array as="points">
              <mxPoint x="-1814" y="-1370" />
              <mxPoint x="-1884" y="-1370" />
            </Array>
          </mxGeometry>
        </mxCell>
        <mxCell id="mcuzn89M00Cm7jjjBw46-5" style="edgeStyle=orthogonalEdgeStyle;rounded=0;orthogonalLoop=1;jettySize=auto;html=1;" parent="51R45vY43iT_jdcogSZ9-1" source="mesm_kIDOi0JZ5hnJyv2-11" target="mcuzn89M00Cm7jjjBw46-0" edge="1">
          <mxGeometry relative="1" as="geometry" />
        </mxCell>
        <mxCell id="mesm_kIDOi0JZ5hnJyv2-11" value="MapData&lt;br&gt;Controller" style="rounded=0;whiteSpace=wrap;html=1;fillColor=#dae8fc;strokeColor=#6c8ebf;shadow=1;" parent="51R45vY43iT_jdcogSZ9-1" vertex="1">
          <mxGeometry x="-1859.5" y="-1430" width="90" height="40" as="geometry" />
        </mxCell>
        <mxCell id="VYJQDYVzbWzPyRM-2ZTZ-27" value="&lt;font style=&quot;font-size: 10px&quot;&gt;manages&lt;/font&gt;" style="text;html=1;strokeColor=none;fillColor=none;align=center;verticalAlign=middle;whiteSpace=wrap;rounded=0;" parent="51R45vY43iT_jdcogSZ9-1" vertex="1">
          <mxGeometry x="-1816" y="-1385" width="60" height="15" as="geometry" />
        </mxCell>
        <mxCell id="e882vHLFMe0ZeBiDDTnJ-31" style="edgeStyle=orthogonalEdgeStyle;rounded=0;orthogonalLoop=1;jettySize=auto;html=1;" parent="51R45vY43iT_jdcogSZ9-1" source="EPvNuUSc4TI7V1zTzWjb-33" target="e882vHLFMe0ZeBiDDTnJ-30" edge="1">
          <mxGeometry relative="1" as="geometry" />
        </mxCell>
        <mxCell id="FaaPZUDsPdvEZ6YP6jF1-1" style="edgeStyle=orthogonalEdgeStyle;rounded=0;orthogonalLoop=1;jettySize=auto;html=1;entryX=1;entryY=0.5;entryDx=0;entryDy=0;" edge="1" parent="51R45vY43iT_jdcogSZ9-1" source="EPvNuUSc4TI7V1zTzWjb-33" target="ZRk0zhL3pRTTiynzC3ml-2">
          <mxGeometry relative="1" as="geometry">
            <Array as="points">
              <mxPoint x="-900" y="-1727" />
              <mxPoint x="-900" y="-1945" />
            </Array>
          </mxGeometry>
        </mxCell>
        <mxCell id="FaaPZUDsPdvEZ6YP6jF1-9" style="edgeStyle=orthogonalEdgeStyle;rounded=0;orthogonalLoop=1;jettySize=auto;html=1;entryX=1;entryY=0.5;entryDx=0;entryDy=0;" edge="1" parent="51R45vY43iT_jdcogSZ9-1" source="EPvNuUSc4TI7V1zTzWjb-33" target="0sawJ3IFaR9pb914Vs4Y-0">
          <mxGeometry relative="1" as="geometry">
            <Array as="points">
              <mxPoint x="-900" y="-1727" />
              <mxPoint x="-900" y="-1325" />
            </Array>
          </mxGeometry>
        </mxCell>
        <mxCell id="FaaPZUDsPdvEZ6YP6jF1-10" style="edgeStyle=orthogonalEdgeStyle;rounded=0;orthogonalLoop=1;jettySize=auto;html=1;entryX=0;entryY=0.5;entryDx=0;entryDy=0;" edge="1" parent="51R45vY43iT_jdcogSZ9-1" source="EPvNuUSc4TI7V1zTzWjb-33" target="U_GKicJxKMkryC1znsnu-2">
          <mxGeometry relative="1" as="geometry">
            <Array as="points">
              <mxPoint x="-900" y="-1727" />
              <mxPoint x="-900" y="-1324" />
            </Array>
          </mxGeometry>
        </mxCell>
        <mxCell id="EPvNuUSc4TI7V1zTzWjb-33" value="VisibleQuests&lt;br&gt;Source" style="rounded=0;whiteSpace=wrap;html=1;fillColor=#dae8fc;strokeColor=#6c8ebf;shadow=1;" parent="51R45vY43iT_jdcogSZ9-1" vertex="1">
          <mxGeometry x="-858.75" y="-1742.5" width="100" height="30" as="geometry" />
        </mxCell>
        <mxCell id="EPvNuUSc4TI7V1zTzWjb-60" value="&lt;font style=&quot;font-size: 10px&quot;&gt;manages&lt;/font&gt;" style="text;html=1;strokeColor=none;fillColor=none;align=center;verticalAlign=middle;whiteSpace=wrap;rounded=0;" parent="51R45vY43iT_jdcogSZ9-1" vertex="1">
          <mxGeometry x="-1905.75" y="-1310" width="60" height="20" as="geometry" />
        </mxCell>
        <mxCell id="EPvNuUSc4TI7V1zTzWjb-67" value="&lt;font style=&quot;font-size: 10px&quot;&gt;manages&lt;/font&gt;" style="text;html=1;strokeColor=none;fillColor=none;align=center;verticalAlign=middle;whiteSpace=wrap;rounded=0;" parent="51R45vY43iT_jdcogSZ9-1" vertex="1">
          <mxGeometry x="-1744" y="-1980" width="60" height="20" as="geometry" />
        </mxCell>
        <mxCell id="EPvNuUSc4TI7V1zTzWjb-72" value="OSM Notes" style="text;html=1;strokeColor=none;fillColor=none;align=center;verticalAlign=middle;whiteSpace=wrap;rounded=0;dashed=1;fontStyle=1" parent="51R45vY43iT_jdcogSZ9-1" vertex="1">
          <mxGeometry x="-1814.37" y="-2070" width="70" height="20" as="geometry" />
        </mxCell>
        <mxCell id="gMZxs_a-2YbgmyMgKVlh-11" value="&lt;font style=&quot;font-size: 10px&quot;&gt;listen to updates&lt;/font&gt;" style="text;html=1;strokeColor=none;fillColor=none;align=center;verticalAlign=middle;whiteSpace=wrap;rounded=0;" parent="51R45vY43iT_jdcogSZ9-1" vertex="1">
          <mxGeometry x="-1201.68" y="-1870" width="90" height="20" as="geometry" />
        </mxCell>
        <mxCell id="VN3gT0sgjHmA_Leb3yui-27" style="edgeStyle=orthogonalEdgeStyle;rounded=0;jumpStyle=arc;jumpSize=8;orthogonalLoop=1;jettySize=auto;html=1;" parent="51R45vY43iT_jdcogSZ9-1" source="gMZxs_a-2YbgmyMgKVlh-12" target="VN3gT0sgjHmA_Leb3yui-26" edge="1">
          <mxGeometry relative="1" as="geometry" />
        </mxCell>
        <mxCell id="gMZxs_a-2YbgmyMgKVlh-12" value="Avatars&lt;br&gt;Downloader" style="rounded=0;whiteSpace=wrap;html=1;fillColor=#ffe6cc;strokeColor=#d79b00;" parent="51R45vY43iT_jdcogSZ9-1" vertex="1">
          <mxGeometry x="-1639.5" y="-2220" width="100" height="30" as="geometry" />
        </mxCell>
        <mxCell id="SQRwWHDyafC3yvhdYBZZ-33" style="edgeStyle=orthogonalEdgeStyle;rounded=0;orthogonalLoop=1;jettySize=auto;html=1;exitX=0.5;exitY=0;exitDx=0;exitDy=0;entryX=0.5;entryY=1;entryDx=0;entryDy=0;endArrow=open;endFill=0;" parent="51R45vY43iT_jdcogSZ9-1" source="gMZxs_a-2YbgmyMgKVlh-13" target="gMZxs_a-2YbgmyMgKVlh-12" edge="1">
          <mxGeometry relative="1" as="geometry" />
        </mxCell>
        <mxCell id="KoYR2n-7WcHbPKtnemoo-53" style="edgeStyle=orthogonalEdgeStyle;rounded=0;orthogonalLoop=1;jettySize=auto;html=1;" parent="51R45vY43iT_jdcogSZ9-1" source="gMZxs_a-2YbgmyMgKVlh-13" target="mesm_kIDOi0JZ5hnJyv2-9" edge="1">
          <mxGeometry relative="1" as="geometry">
            <Array as="points">
              <mxPoint x="-1590" y="-2135" />
              <mxPoint x="-1590" y="-2010" />
            </Array>
          </mxGeometry>
        </mxCell>
        <mxCell id="gMZxs_a-2YbgmyMgKVlh-13" value="Avatars&lt;br&gt;InNotesUpdater" style="rounded=0;whiteSpace=wrap;html=1;fillColor=#dae8fc;strokeColor=#6c8ebf;" parent="51R45vY43iT_jdcogSZ9-1" vertex="1">
          <mxGeometry x="-1640" y="-2160" width="100" height="30" as="geometry" />
        </mxCell>
        <mxCell id="VN3gT0sgjHmA_Leb3yui-25" style="edgeStyle=orthogonalEdgeStyle;rounded=0;jumpStyle=arc;jumpSize=8;orthogonalLoop=1;jettySize=auto;html=1;entryX=0.5;entryY=1;entryDx=0;entryDy=0;" parent="51R45vY43iT_jdcogSZ9-1" source="gMZxs_a-2YbgmyMgKVlh-21" target="VN3gT0sgjHmA_Leb3yui-24" edge="1">
          <mxGeometry relative="1" as="geometry" />
        </mxCell>
        <mxCell id="KoYR2n-7WcHbPKtnemoo-16" style="edgeStyle=orthogonalEdgeStyle;rounded=0;orthogonalLoop=1;jettySize=auto;html=1;" parent="51R45vY43iT_jdcogSZ9-1" source="gMZxs_a-2YbgmyMgKVlh-21" target="mesm_kIDOi0JZ5hnJyv2-9" edge="1">
          <mxGeometry relative="1" as="geometry">
            <Array as="points">
              <mxPoint x="-2040" y="-2020" />
            </Array>
          </mxGeometry>
        </mxCell>
        <mxCell id="gMZxs_a-2YbgmyMgKVlh-21" value="Notes&lt;br&gt;Downloader" style="rounded=0;whiteSpace=wrap;html=1;fillColor=#ffe6cc;strokeColor=#d79b00;" parent="51R45vY43iT_jdcogSZ9-1" vertex="1">
          <mxGeometry x="-2090.5" y="-2110" width="100" height="30" as="geometry" />
        </mxCell>
        <mxCell id="X_AoJ5oqezNbY4iK6CAJ-13" value="&lt;font style=&quot;font-size: 10px&quot;&gt;update&lt;/font&gt;" style="text;html=1;strokeColor=none;fillColor=none;align=center;verticalAlign=middle;whiteSpace=wrap;rounded=0;" parent="51R45vY43iT_jdcogSZ9-1" vertex="1">
          <mxGeometry x="-2035.5" y="-2040" width="40" height="20" as="geometry" />
        </mxCell>
        <mxCell id="X_AoJ5oqezNbY4iK6CAJ-22" value="&lt;font style=&quot;font-size: 10px&quot;&gt;manages&lt;/font&gt;" style="text;html=1;strokeColor=none;fillColor=none;align=center;verticalAlign=middle;whiteSpace=wrap;rounded=0;" parent="51R45vY43iT_jdcogSZ9-1" vertex="1">
          <mxGeometry x="-1027.31" y="-1488.75" width="60" height="20" as="geometry" />
        </mxCell>
        <mxCell id="X_AoJ5oqezNbY4iK6CAJ-41" value="OSM Quests" style="text;html=1;strokeColor=none;fillColor=none;align=center;verticalAlign=middle;whiteSpace=wrap;rounded=0;dashed=1;fontStyle=1" parent="51R45vY43iT_jdcogSZ9-1" vertex="1">
          <mxGeometry x="-1090.3800000000003" y="-1638.75" width="80" height="20" as="geometry" />
        </mxCell>
        <mxCell id="X_AoJ5oqezNbY4iK6CAJ-48" style="edgeStyle=orthogonalEdgeStyle;rounded=0;orthogonalLoop=1;jettySize=auto;html=1;endArrow=open;endFill=0;" parent="51R45vY43iT_jdcogSZ9-1" source="X_AoJ5oqezNbY4iK6CAJ-44" target="mesm_kIDOi0JZ5hnJyv2-11" edge="1">
          <mxGeometry relative="1" as="geometry">
            <Array as="points">
              <mxPoint x="-2180.62" y="-1420" />
            </Array>
            <mxPoint x="-1805.62" y="-1440" as="targetPoint" />
          </mxGeometry>
        </mxCell>
        <mxCell id="VN3gT0sgjHmA_Leb3yui-15" style="edgeStyle=orthogonalEdgeStyle;rounded=0;jumpStyle=arc;jumpSize=8;orthogonalLoop=1;jettySize=auto;html=1;" parent="51R45vY43iT_jdcogSZ9-1" source="X_AoJ5oqezNbY4iK6CAJ-44" target="VN3gT0sgjHmA_Leb3yui-13" edge="1">
          <mxGeometry relative="1" as="geometry" />
        </mxCell>
        <mxCell id="X_AoJ5oqezNbY4iK6CAJ-44" value="MapData&lt;br&gt;Downloader" style="rounded=0;whiteSpace=wrap;html=1;fillColor=#ffe6cc;strokeColor=#d79b00;" parent="51R45vY43iT_jdcogSZ9-1" vertex="1">
          <mxGeometry x="-2220.62" y="-1502.5" width="80" height="30" as="geometry" />
        </mxCell>
        <mxCell id="SQRwWHDyafC3yvhdYBZZ-34" value="&lt;font style=&quot;font-size: 10px&quot;&gt;triggers&lt;/font&gt;" style="text;html=1;strokeColor=none;fillColor=none;align=center;verticalAlign=middle;whiteSpace=wrap;rounded=0;" parent="51R45vY43iT_jdcogSZ9-1" vertex="1">
          <mxGeometry x="-1585" y="-2182.5" width="40" height="20" as="geometry" />
        </mxCell>
        <mxCell id="SQRwWHDyafC3yvhdYBZZ-43" value="&lt;font style=&quot;font-size: 10px&quot;&gt;listen to updates&lt;/font&gt;" style="text;html=1;strokeColor=none;fillColor=none;align=center;verticalAlign=middle;whiteSpace=wrap;rounded=0;" parent="51R45vY43iT_jdcogSZ9-1" vertex="1">
          <mxGeometry x="-790" y="-1710" width="90" height="20" as="geometry" />
        </mxCell>
        <mxCell id="SQRwWHDyafC3yvhdYBZZ-44" value="Visible&lt;br&gt;QuestType&lt;br&gt;Dao" style="shape=cylinder3;whiteSpace=wrap;html=1;boundedLbl=1;backgroundOutline=1;size=4.333333333333627;fillColor=#f5f5f5;strokeColor=#666666;fontColor=#333333;" parent="51R45vY43iT_jdcogSZ9-1" vertex="1">
          <mxGeometry x="-848.75" y="-1169.5" width="80" height="60" as="geometry" />
        </mxCell>
        <mxCell id="SQRwWHDyafC3yvhdYBZZ-73" value="OSM Note Quests" style="text;html=1;strokeColor=none;fillColor=none;align=center;verticalAlign=middle;whiteSpace=wrap;rounded=0;dashed=1;fontStyle=1" parent="51R45vY43iT_jdcogSZ9-1" vertex="1">
          <mxGeometry x="-1095" y="-2000" width="120" height="20" as="geometry" />
        </mxCell>
        <mxCell id="j30bs2ysJRAmwsAj-f78-0" value="NoteQuests&lt;div&gt;Hidden&lt;br&gt;Dao&lt;/div&gt;" style="shape=cylinder3;whiteSpace=wrap;html=1;boundedLbl=1;backgroundOutline=1;size=4.333333333333627;fillColor=#f5f5f5;strokeColor=#666666;fontColor=#333333;" parent="51R45vY43iT_jdcogSZ9-1" vertex="1">
          <mxGeometry x="-1222.68" y="-1179" width="110" height="59" as="geometry" />
        </mxCell>
        <mxCell id="ZRk0zhL3pRTTiynzC3ml-2" value="OsmNote&lt;br&gt;QuestSource" style="rounded=0;whiteSpace=wrap;html=1;fillColor=#d5e8d4;fontStyle=0;strokeColor=#82b366;" parent="51R45vY43iT_jdcogSZ9-1" vertex="1">
          <mxGeometry x="-1078.68" y="-1965" width="90" height="40" as="geometry" />
        </mxCell>
        <mxCell id="ZRk0zhL3pRTTiynzC3ml-4" value="&lt;font style=&quot;font-size: 10px&quot;&gt;implements&lt;/font&gt;" style="text;html=1;strokeColor=none;fillColor=none;align=center;verticalAlign=middle;whiteSpace=wrap;rounded=0;" parent="51R45vY43iT_jdcogSZ9-1" vertex="1">
          <mxGeometry x="-1024.68" y="-1915" width="40" height="20" as="geometry" />
        </mxCell>
        <mxCell id="ZRk0zhL3pRTTiynzC3ml-19" value="&lt;font style=&quot;font-size: 10px&quot;&gt;update&lt;/font&gt;" style="text;html=1;strokeColor=none;fillColor=none;align=center;verticalAlign=middle;whiteSpace=wrap;rounded=0;" parent="51R45vY43iT_jdcogSZ9-1" vertex="1">
          <mxGeometry x="-2176.25" y="-1340" width="40" height="20" as="geometry" />
        </mxCell>
        <mxCell id="ZRk0zhL3pRTTiynzC3ml-23" value="&lt;font style=&quot;font-size: 10px&quot;&gt;listen to updates&lt;/font&gt;" style="text;html=1;strokeColor=none;fillColor=none;align=center;verticalAlign=middle;whiteSpace=wrap;rounded=0;" parent="51R45vY43iT_jdcogSZ9-1" vertex="1">
          <mxGeometry x="-1585" y="-2125" width="90" height="20" as="geometry" />
        </mxCell>
        <mxCell id="zcpkFRRcYsidM-BZpb4--0" value="OsmQuests&lt;div&gt;Hidden&lt;br&gt;Dao&lt;/div&gt;" style="shape=cylinder3;whiteSpace=wrap;html=1;boundedLbl=1;backgroundOutline=1;size=4.333333333333627;fillColor=#f5f5f5;strokeColor=#666666;fontColor=#333333;" parent="51R45vY43iT_jdcogSZ9-1" vertex="1">
          <mxGeometry x="-1092.5" y="-1179" width="115" height="59" as="geometry" />
        </mxCell>
        <mxCell id="zcpkFRRcYsidM-BZpb4--1" value="Osm&lt;br&gt;QuestDao" style="shape=cylinder3;whiteSpace=wrap;html=1;boundedLbl=1;backgroundOutline=1;size=4.333333333333627;fillColor=#f5f5f5;strokeColor=#666666;fontColor=#333333;" parent="51R45vY43iT_jdcogSZ9-1" vertex="1">
          <mxGeometry x="-1066" y="-1462.5" width="70" height="40" as="geometry" />
        </mxCell>
        <mxCell id="Qy5qiiHPJYb9mzbqVUHA-3" value="Cleaner" style="rounded=0;whiteSpace=wrap;html=1;fillColor=#ffe6cc;strokeColor=#d79b00;" parent="51R45vY43iT_jdcogSZ9-1" vertex="1">
          <mxGeometry x="-2382" y="-2188.75" width="74" height="35" as="geometry" />
        </mxCell>
        <mxCell id="Qy5qiiHPJYb9mzbqVUHA-12" value="Osm&lt;br&gt;QuestSource" style="rounded=0;whiteSpace=wrap;html=1;fillColor=#d5e8d4;strokeColor=#82b366;" parent="51R45vY43iT_jdcogSZ9-1" vertex="1">
          <mxGeometry x="-1076" y="-1600" width="90" height="30" as="geometry" />
        </mxCell>
        <mxCell id="Qy5qiiHPJYb9mzbqVUHA-19" value="&lt;font style=&quot;font-size: 10px&quot;&gt;implements&lt;/font&gt;" style="text;html=1;strokeColor=none;fillColor=none;align=center;verticalAlign=middle;whiteSpace=wrap;rounded=0;" parent="51R45vY43iT_jdcogSZ9-1" vertex="1">
          <mxGeometry x="-1018.68" y="-1555" width="40" height="20" as="geometry" />
        </mxCell>
        <mxCell id="U_GKicJxKMkryC1znsnu-3" style="edgeStyle=orthogonalEdgeStyle;rounded=0;orthogonalLoop=1;jettySize=auto;html=1;exitX=0.5;exitY=1;exitDx=0;exitDy=0;entryX=0.5;entryY=0;entryDx=0;entryDy=0;" parent="51R45vY43iT_jdcogSZ9-1" source="U_GKicJxKMkryC1znsnu-1" target="SQRwWHDyafC3yvhdYBZZ-44" edge="1">
          <mxGeometry relative="1" as="geometry" />
        </mxCell>
        <mxCell id="U_GKicJxKMkryC1znsnu-4" style="edgeStyle=orthogonalEdgeStyle;rounded=0;orthogonalLoop=1;jettySize=auto;html=1;exitX=0.5;exitY=0;exitDx=0;exitDy=0;entryX=0.5;entryY=1;entryDx=0;entryDy=0;" parent="51R45vY43iT_jdcogSZ9-1" source="U_GKicJxKMkryC1znsnu-1" target="U_GKicJxKMkryC1znsnu-2" edge="1">
          <mxGeometry relative="1" as="geometry" />
        </mxCell>
        <mxCell id="U_GKicJxKMkryC1znsnu-1" value="Visible&lt;br&gt;QuestType&lt;br&gt;Controller" style="rounded=0;whiteSpace=wrap;html=1;fillColor=#dae8fc;strokeColor=#6c8ebf;shadow=1;" parent="51R45vY43iT_jdcogSZ9-1" vertex="1">
          <mxGeometry x="-847.5" y="-1258.25" width="80" height="50" as="geometry" />
        </mxCell>
        <mxCell id="U_GKicJxKMkryC1znsnu-2" value="&lt;span&gt;Visible&lt;/span&gt;&lt;br&gt;&lt;span&gt;QuestType&lt;/span&gt;&lt;br&gt;Source" style="rounded=0;whiteSpace=wrap;html=1;fillColor=#d5e8d4;strokeColor=#82b366;" parent="51R45vY43iT_jdcogSZ9-1" vertex="1">
          <mxGeometry x="-848" y="-1349.5" width="80.5" height="50" as="geometry" />
        </mxCell>
        <mxCell id="U_GKicJxKMkryC1znsnu-5" value="&lt;font style=&quot;font-size: 10px&quot;&gt;implements&lt;/font&gt;" style="text;html=1;strokeColor=none;fillColor=none;align=center;verticalAlign=middle;whiteSpace=wrap;rounded=0;" parent="51R45vY43iT_jdcogSZ9-1" vertex="1">
          <mxGeometry x="-798.75" y="-1289.5" width="40" height="20" as="geometry" />
        </mxCell>
        <mxCell id="U_GKicJxKMkryC1znsnu-6" value="&lt;font style=&quot;font-size: 10px&quot;&gt;manages&lt;/font&gt;" style="text;html=1;strokeColor=none;fillColor=none;align=center;verticalAlign=middle;whiteSpace=wrap;rounded=0;" parent="51R45vY43iT_jdcogSZ9-1" vertex="1">
          <mxGeometry x="-808.75" y="-1202" width="60" height="20" as="geometry" />
        </mxCell>
        <mxCell id="U_GKicJxKMkryC1znsnu-8" value="&lt;font style=&quot;font-size: 10px&quot;&gt;listen to updates&lt;/font&gt;" style="text;html=1;fillColor=none;align=center;verticalAlign=middle;whiteSpace=wrap;rounded=0;" parent="51R45vY43iT_jdcogSZ9-1" vertex="1">
          <mxGeometry x="-1001" y="-1717.5" width="90" height="20" as="geometry" />
        </mxCell>
        <mxCell id="rCbAnWRTHyudZIotb-B6-1" value="ElementEdits&lt;br&gt;Dao" style="shape=cylinder3;whiteSpace=wrap;html=1;boundedLbl=1;backgroundOutline=1;size=4.333333333333627;fillColor=#f5f5f5;strokeColor=#666666;fontColor=#333333;" parent="51R45vY43iT_jdcogSZ9-1" vertex="1">
          <mxGeometry x="-1759" y="-940.75" width="90" height="40" as="geometry" />
        </mxCell>
        <mxCell id="VN3gT0sgjHmA_Leb3yui-2" style="edgeStyle=orthogonalEdgeStyle;rounded=0;jumpStyle=arc;jumpSize=8;orthogonalLoop=1;jettySize=auto;html=1;" parent="51R45vY43iT_jdcogSZ9-1" source="X_a0LBV0IgO_wq9-Kd-z-23" target="AMog97A_i3nvVhwuTzJO-0" edge="1">
          <mxGeometry relative="1" as="geometry" />
        </mxCell>
        <mxCell id="VN3gT0sgjHmA_Leb3yui-6" style="edgeStyle=orthogonalEdgeStyle;rounded=0;jumpStyle=arc;jumpSize=8;orthogonalLoop=1;jettySize=auto;html=1;exitX=0.5;exitY=0;exitDx=0;exitDy=0;entryX=0;entryY=0.75;entryDx=0;entryDy=0;" parent="51R45vY43iT_jdcogSZ9-1" source="X_a0LBV0IgO_wq9-Kd-z-23" target="mesm_kIDOi0JZ5hnJyv2-11" edge="1">
          <mxGeometry relative="1" as="geometry" />
        </mxCell>
        <mxCell id="OpHWaJ8LRmHsNUjZXrtZ-20" style="edgeStyle=orthogonalEdgeStyle;rounded=0;jumpStyle=arc;jumpSize=10;orthogonalLoop=1;jettySize=auto;html=1;" parent="51R45vY43iT_jdcogSZ9-1" source="X_a0LBV0IgO_wq9-Kd-z-23" target="OpHWaJ8LRmHsNUjZXrtZ-0" edge="1">
          <mxGeometry relative="1" as="geometry">
            <Array as="points">
              <mxPoint x="-2110" y="-1006" />
            </Array>
          </mxGeometry>
        </mxCell>
        <mxCell id="X_a0LBV0IgO_wq9-Kd-z-23" value="ElementEditsUploader" style="rounded=0;whiteSpace=wrap;html=1;fillColor=#ffe6cc;strokeColor=#d79b00;" parent="51R45vY43iT_jdcogSZ9-1" vertex="1">
          <mxGeometry x="-2250.62" y="-1010.25" width="131.25" height="20" as="geometry" />
        </mxCell>
        <mxCell id="5nS5rgF4Wvow1M-so0mw-0" value="ElementId&lt;br&gt;ProviderDao" style="shape=cylinder3;whiteSpace=wrap;html=1;boundedLbl=1;backgroundOutline=1;size=4.333333333333627;fillColor=#f5f5f5;strokeColor=#666666;fontColor=#333333;" parent="51R45vY43iT_jdcogSZ9-1" vertex="1">
          <mxGeometry x="-1860" y="-940.75" width="80" height="41.25" as="geometry" />
        </mxCell>
        <mxCell id="AMog97A_i3nvVhwuTzJO-8" style="edgeStyle=orthogonalEdgeStyle;rounded=0;orthogonalLoop=1;jettySize=auto;html=1;exitX=0.5;exitY=1;exitDx=0;exitDy=0;" parent="51R45vY43iT_jdcogSZ9-1" source="AMog97A_i3nvVhwuTzJO-0" target="AMog97A_i3nvVhwuTzJO-5" edge="1">
          <mxGeometry relative="1" as="geometry" />
        </mxCell>
        <mxCell id="VN3gT0sgjHmA_Leb3yui-16" style="edgeStyle=orthogonalEdgeStyle;rounded=0;jumpStyle=arc;jumpSize=8;orthogonalLoop=1;jettySize=auto;html=1;" parent="51R45vY43iT_jdcogSZ9-1" source="AMog97A_i3nvVhwuTzJO-0" target="VN3gT0sgjHmA_Leb3yui-11" edge="1">
          <mxGeometry relative="1" as="geometry">
            <Array as="points">
              <mxPoint x="-2330" y="-930.25" />
            </Array>
          </mxGeometry>
        </mxCell>
        <mxCell id="AMog97A_i3nvVhwuTzJO-0" value="ElementEditUplader" style="rounded=0;whiteSpace=wrap;html=1;fillColor=#ffe6cc;strokeColor=#d79b00;" parent="51R45vY43iT_jdcogSZ9-1" vertex="1">
          <mxGeometry x="-2245.25" y="-940.25" width="120.5" height="20" as="geometry" />
        </mxCell>
        <mxCell id="AMog97A_i3nvVhwuTzJO-3" value="OpenChangesetsDao" style="shape=cylinder3;whiteSpace=wrap;html=1;boundedLbl=1;backgroundOutline=1;size=4.333333333333627;fillColor=#f5f5f5;strokeColor=#666666;fontColor=#333333;" parent="51R45vY43iT_jdcogSZ9-1" vertex="1">
          <mxGeometry x="-2244" y="-790.25" width="120" height="31" as="geometry" />
        </mxCell>
        <mxCell id="Nqt0zIOCD2QyWTtKsnE3-6" style="edgeStyle=orthogonalEdgeStyle;rounded=0;orthogonalLoop=1;jettySize=auto;html=1;entryX=0.5;entryY=0;entryDx=0;entryDy=0;" parent="51R45vY43iT_jdcogSZ9-1" source="AMog97A_i3nvVhwuTzJO-5" target="AMog97A_i3nvVhwuTzJO-3" edge="1">
          <mxGeometry relative="1" as="geometry" />
        </mxCell>
        <mxCell id="Q-4XL3PjG0CG-HxjcVdR-6" style="edgeStyle=orthogonalEdgeStyle;rounded=0;orthogonalLoop=1;jettySize=auto;html=1;entryX=0.5;entryY=0;entryDx=0;entryDy=0;" parent="51R45vY43iT_jdcogSZ9-1" source="AMog97A_i3nvVhwuTzJO-5" target="Q-4XL3PjG0CG-HxjcVdR-1" edge="1">
          <mxGeometry relative="1" as="geometry" />
        </mxCell>
        <mxCell id="VN3gT0sgjHmA_Leb3yui-17" style="edgeStyle=orthogonalEdgeStyle;rounded=0;jumpStyle=arc;jumpSize=8;orthogonalLoop=1;jettySize=auto;html=1;" parent="51R45vY43iT_jdcogSZ9-1" source="AMog97A_i3nvVhwuTzJO-5" target="VN3gT0sgjHmA_Leb3yui-11" edge="1">
          <mxGeometry relative="1" as="geometry" />
        </mxCell>
        <mxCell id="AMog97A_i3nvVhwuTzJO-5" value="OpenQuest&lt;br&gt;ChangesetManager" style="rounded=0;whiteSpace=wrap;html=1;fillColor=#dae8fc;strokeColor=#6c8ebf;" parent="51R45vY43iT_jdcogSZ9-1" vertex="1">
          <mxGeometry x="-2245.25" y="-860.25" width="121.25" height="30" as="geometry" />
        </mxCell>
        <mxCell id="AMog97A_i3nvVhwuTzJO-9" value="&lt;font style=&quot;font-size: 10px&quot;&gt;uses&lt;/font&gt;" style="text;html=1;strokeColor=none;fillColor=none;align=center;verticalAlign=middle;whiteSpace=wrap;rounded=0;" parent="51R45vY43iT_jdcogSZ9-1" vertex="1">
          <mxGeometry x="-2180.5" y="-910.25" width="40.5" height="20" as="geometry" />
        </mxCell>
        <mxCell id="AMog97A_i3nvVhwuTzJO-10" value="&lt;font style=&quot;font-size: 10px&quot;&gt;manages&lt;/font&gt;" style="text;html=1;strokeColor=none;fillColor=none;align=center;verticalAlign=middle;whiteSpace=wrap;rounded=0;" parent="51R45vY43iT_jdcogSZ9-1" vertex="1">
          <mxGeometry x="-2176.25" y="-820.25" width="60" height="20" as="geometry" />
        </mxCell>
        <mxCell id="3RwCWiJqvHF5Kl5ZZMvR-6" value="OSM Upload" style="text;html=1;strokeColor=none;fillColor=none;align=center;verticalAlign=middle;whiteSpace=wrap;rounded=0;dashed=1;fontStyle=1" parent="51R45vY43iT_jdcogSZ9-1" vertex="1">
          <mxGeometry x="-2400" y="-1050.25" width="90" height="20" as="geometry" />
        </mxCell>
        <mxCell id="Q-4XL3PjG0CG-HxjcVdR-1" value="Changeset&lt;br&gt;AutoCloser" style="rounded=0;whiteSpace=wrap;html=1;fillColor=#ffe6cc;strokeColor=#d79b00;" parent="51R45vY43iT_jdcogSZ9-1" vertex="1">
          <mxGeometry x="-2100" y="-790.25" width="84.5" height="30" as="geometry" />
        </mxCell>
        <mxCell id="Q-4XL3PjG0CG-HxjcVdR-5" value="&lt;font style=&quot;font-size: 10px&quot;&gt;triggers&lt;/font&gt;" style="text;html=1;strokeColor=none;fillColor=none;align=center;verticalAlign=middle;whiteSpace=wrap;rounded=0;" parent="51R45vY43iT_jdcogSZ9-1" vertex="1">
          <mxGeometry x="-2100" y="-840.25" width="40" height="20" as="geometry" />
        </mxCell>
        <mxCell id="VN3gT0sgjHmA_Leb3yui-7" value="&lt;font style=&quot;font-size: 10px&quot;&gt;update&lt;/font&gt;" style="text;html=1;strokeColor=none;fillColor=none;align=center;verticalAlign=middle;whiteSpace=wrap;rounded=0;" parent="51R45vY43iT_jdcogSZ9-1" vertex="1">
          <mxGeometry x="-2181.12" y="-1440" width="60" height="20" as="geometry" />
        </mxCell>
        <mxCell id="VN3gT0sgjHmA_Leb3yui-10" value="&lt;font style=&quot;font-size: 10px&quot;&gt;uses&lt;/font&gt;" style="text;html=1;strokeColor=none;fillColor=none;align=center;verticalAlign=middle;whiteSpace=wrap;rounded=0;" parent="51R45vY43iT_jdcogSZ9-1" vertex="1">
          <mxGeometry x="-2180" y="-984.25" width="40.5" height="20" as="geometry" />
        </mxCell>
        <mxCell id="VN3gT0sgjHmA_Leb3yui-11" value="MapDataApi" style="ellipse;shape=cloud;whiteSpace=wrap;html=1;fillColor=white;" parent="51R45vY43iT_jdcogSZ9-1" vertex="1">
          <mxGeometry x="-2390" y="-800.25" width="120" height="35" as="geometry" />
        </mxCell>
        <mxCell id="VN3gT0sgjHmA_Leb3yui-13" value="MapDataApi" style="ellipse;shape=cloud;whiteSpace=wrap;html=1;fillColor=white;" parent="51R45vY43iT_jdcogSZ9-1" vertex="1">
          <mxGeometry x="-2240.62" y="-1590" width="120" height="40" as="geometry" />
        </mxCell>
        <mxCell id="VN3gT0sgjHmA_Leb3yui-18" value="&lt;font style=&quot;font-size: 10px&quot;&gt;talks with&lt;/font&gt;" style="text;html=1;strokeColor=none;fillColor=none;align=center;verticalAlign=middle;whiteSpace=wrap;rounded=0;" parent="51R45vY43iT_jdcogSZ9-1" vertex="1">
          <mxGeometry x="-2330.25" y="-880.25" width="60.25" height="20" as="geometry" />
        </mxCell>
        <mxCell id="VN3gT0sgjHmA_Leb3yui-19" value="&lt;font style=&quot;font-size: 10px&quot;&gt;talks with&lt;/font&gt;" style="text;html=1;strokeColor=none;fillColor=none;align=center;verticalAlign=middle;whiteSpace=wrap;rounded=0;" parent="51R45vY43iT_jdcogSZ9-1" vertex="1">
          <mxGeometry x="-2176.12" y="-1535" width="55.5" height="20" as="geometry" />
        </mxCell>
        <mxCell id="VN3gT0sgjHmA_Leb3yui-24" value="NotesApi" style="ellipse;shape=cloud;whiteSpace=wrap;html=1;fillColor=white;" parent="51R45vY43iT_jdcogSZ9-1" vertex="1">
          <mxGeometry x="-2085.5" y="-2190" width="90" height="35" as="geometry" />
        </mxCell>
        <mxCell id="VN3gT0sgjHmA_Leb3yui-26" value="UserApi" style="ellipse;shape=cloud;whiteSpace=wrap;html=1;fillColor=white;" parent="51R45vY43iT_jdcogSZ9-1" vertex="1">
          <mxGeometry x="-1635" y="-2300" width="90" height="35" as="geometry" />
        </mxCell>
        <mxCell id="VN3gT0sgjHmA_Leb3yui-28" value="&lt;font style=&quot;font-size: 10px&quot;&gt;talks with&lt;/font&gt;" style="text;html=1;strokeColor=none;fillColor=none;align=center;verticalAlign=middle;whiteSpace=wrap;rounded=0;" parent="51R45vY43iT_jdcogSZ9-1" vertex="1">
          <mxGeometry x="-2039.5" y="-2145" width="55.5" height="20" as="geometry" />
        </mxCell>
        <mxCell id="VN3gT0sgjHmA_Leb3yui-29" value="&lt;font style=&quot;font-size: 10px&quot;&gt;talks with&lt;/font&gt;" style="text;html=1;strokeColor=none;fillColor=none;align=center;verticalAlign=middle;whiteSpace=wrap;rounded=0;" parent="51R45vY43iT_jdcogSZ9-1" vertex="1">
          <mxGeometry x="-1582.25" y="-2250" width="55.5" height="20" as="geometry" />
        </mxCell>
        <mxCell id="VN3gT0sgjHmA_Leb3yui-35" value="Data Management / Transformation" style="rounded=0;whiteSpace=wrap;html=1;fillColor=#dae8fc;strokeColor=#6c8ebf;shadow=1;" parent="51R45vY43iT_jdcogSZ9-1" vertex="1">
          <mxGeometry x="-475" y="-2180" width="90" height="50" as="geometry" />
        </mxCell>
        <mxCell id="VN3gT0sgjHmA_Leb3yui-38" value="Legend" style="text;html=1;strokeColor=none;fillColor=none;align=center;verticalAlign=middle;whiteSpace=wrap;rounded=0;dashed=1;fontStyle=1;fontSize=24;" parent="51R45vY43iT_jdcogSZ9-1" vertex="1">
          <mxGeometry x="-490" y="-2240" width="370" height="40" as="geometry" />
        </mxCell>
        <mxCell id="VN3gT0sgjHmA_Leb3yui-39" value="Data Persistence" style="shape=cylinder3;whiteSpace=wrap;html=1;boundedLbl=1;backgroundOutline=1;size=4.333333333333627;fillColor=#f5f5f5;strokeColor=#666666;fontColor=#333333;" parent="51R45vY43iT_jdcogSZ9-1" vertex="1">
          <mxGeometry x="-475" y="-2110" width="90" height="50" as="geometry" />
        </mxCell>
        <mxCell id="VN3gT0sgjHmA_Leb3yui-40" value="Data source" style="rounded=0;whiteSpace=wrap;html=1;fillColor=#d5e8d4;strokeColor=#82b366;" parent="51R45vY43iT_jdcogSZ9-1" vertex="1">
          <mxGeometry x="-475" y="-2040" width="90" height="50" as="geometry" />
        </mxCell>
        <mxCell id="VN3gT0sgjHmA_Leb3yui-43" value="Actors" style="rounded=0;whiteSpace=wrap;html=1;fillColor=#ffe6cc;strokeColor=#d79b00;" parent="51R45vY43iT_jdcogSZ9-1" vertex="1">
          <mxGeometry x="-475" y="-1970" width="91" height="50" as="geometry" />
        </mxCell>
        <mxCell id="VN3gT0sgjHmA_Leb3yui-47" value="Manage access to persisted data; usually passive; May allow listeners to observe changes to the data managed or observe other data sources itself" style="text;html=1;strokeColor=none;fillColor=none;align=left;verticalAlign=middle;whiteSpace=wrap;rounded=0;" parent="51R45vY43iT_jdcogSZ9-1" vertex="1">
          <mxGeometry x="-375" y="-2180" width="250" height="50" as="geometry" />
        </mxCell>
        <mxCell id="VN3gT0sgjHmA_Leb3yui-48" value="Persist data in a database or other persistent storage; usually simple CRUD data stores; usually only directly accessed by a presiding *Controller" style="text;html=1;strokeColor=none;fillColor=none;align=left;verticalAlign=middle;whiteSpace=wrap;rounded=0;" parent="51R45vY43iT_jdcogSZ9-1" vertex="1">
          <mxGeometry x="-375" y="-2110" width="250" height="50" as="geometry" />
        </mxCell>
        <mxCell id="VN3gT0sgjHmA_Leb3yui-50" value="Source of data, often allowing listeners to observe changes made on that data; usually interfaces implemented by *Controllers." style="text;html=1;strokeColor=none;fillColor=none;align=left;verticalAlign=middle;whiteSpace=wrap;rounded=0;" parent="51R45vY43iT_jdcogSZ9-1" vertex="1">
          <mxGeometry x="-375" y="-2040" width="250" height="40" as="geometry" />
        </mxCell>
        <mxCell id="VN3gT0sgjHmA_Leb3yui-51" value="Classes that push/update data to *Controllers; or are in other forms &quot;active&quot;" style="text;html=1;strokeColor=none;fillColor=none;align=left;verticalAlign=middle;whiteSpace=wrap;rounded=0;" parent="51R45vY43iT_jdcogSZ9-1" vertex="1">
          <mxGeometry x="-375" y="-1970" width="250" height="30" as="geometry" />
        </mxCell>
        <mxCell id="VN3gT0sgjHmA_Leb3yui-55" value="Comms" style="ellipse;shape=cloud;whiteSpace=wrap;html=1;fillColor=white;" parent="51R45vY43iT_jdcogSZ9-1" vertex="1">
          <mxGeometry x="-475" y="-1900" width="88.5" height="50" as="geometry" />
        </mxCell>
        <mxCell id="VN3gT0sgjHmA_Leb3yui-56" value="Talks with some API over the Internet" style="text;html=1;strokeColor=none;fillColor=none;align=left;verticalAlign=middle;whiteSpace=wrap;rounded=0;" parent="51R45vY43iT_jdcogSZ9-1" vertex="1">
          <mxGeometry x="-376.5" y="-1900" width="250" height="30" as="geometry" />
        </mxCell>
        <mxCell id="VN3gT0sgjHmA_Leb3yui-66" value="OSM Download" style="text;html=1;strokeColor=none;fillColor=none;align=center;verticalAlign=middle;whiteSpace=wrap;rounded=0;dashed=1;fontStyle=1" parent="51R45vY43iT_jdcogSZ9-1" vertex="1">
          <mxGeometry x="-2250.62" y="-1620" width="100" height="20" as="geometry" />
        </mxCell>
        <mxCell id="OpHWaJ8LRmHsNUjZXrtZ-2" style="edgeStyle=orthogonalEdgeStyle;rounded=0;orthogonalLoop=1;jettySize=auto;html=1;entryX=0.5;entryY=1;entryDx=0;entryDy=0;" parent="51R45vY43iT_jdcogSZ9-1" source="OpHWaJ8LRmHsNUjZXrtZ-0" target="OpHWaJ8LRmHsNUjZXrtZ-1" edge="1">
          <mxGeometry relative="1" as="geometry" />
        </mxCell>
        <mxCell id="OpHWaJ8LRmHsNUjZXrtZ-4" style="edgeStyle=orthogonalEdgeStyle;rounded=0;orthogonalLoop=1;jettySize=auto;html=1;" parent="51R45vY43iT_jdcogSZ9-1" source="OpHWaJ8LRmHsNUjZXrtZ-0" target="rCbAnWRTHyudZIotb-B6-1" edge="1">
          <mxGeometry relative="1" as="geometry">
            <Array as="points">
              <mxPoint x="-1769.37" y="-962" />
              <mxPoint x="-1715.37" y="-962" />
            </Array>
          </mxGeometry>
        </mxCell>
        <mxCell id="OpHWaJ8LRmHsNUjZXrtZ-5" style="edgeStyle=orthogonalEdgeStyle;rounded=0;orthogonalLoop=1;jettySize=auto;html=1;" parent="51R45vY43iT_jdcogSZ9-1" source="OpHWaJ8LRmHsNUjZXrtZ-0" target="5nS5rgF4Wvow1M-so0mw-0" edge="1">
          <mxGeometry relative="1" as="geometry">
            <Array as="points">
              <mxPoint x="-1769.37" y="-962" />
              <mxPoint x="-1823.37" y="-962" />
            </Array>
          </mxGeometry>
        </mxCell>
        <mxCell id="OpHWaJ8LRmHsNUjZXrtZ-0" value="ElementEdits&lt;br&gt;Controller" style="rounded=0;whiteSpace=wrap;html=1;fillColor=#dae8fc;strokeColor=#6c8ebf;shadow=1;" parent="51R45vY43iT_jdcogSZ9-1" vertex="1">
          <mxGeometry x="-1814.37" y="-1026" width="90" height="40" as="geometry" />
        </mxCell>
        <mxCell id="OpHWaJ8LRmHsNUjZXrtZ-1" value="ElementEdits&lt;br&gt;Source" style="rounded=0;whiteSpace=wrap;html=1;fillColor=#d5e8d4;strokeColor=#82b366;" parent="51R45vY43iT_jdcogSZ9-1" vertex="1">
          <mxGeometry x="-1814.37" y="-1092" width="90" height="30" as="geometry" />
        </mxCell>
        <mxCell id="OpHWaJ8LRmHsNUjZXrtZ-3" value="&lt;font style=&quot;font-size: 10px&quot;&gt;implements&lt;/font&gt;" style="text;html=1;strokeColor=none;fillColor=none;align=center;verticalAlign=middle;whiteSpace=wrap;rounded=0;" parent="51R45vY43iT_jdcogSZ9-1" vertex="1">
          <mxGeometry x="-1760" y="-1055.75" width="55.63" height="20" as="geometry" />
        </mxCell>
        <mxCell id="OpHWaJ8LRmHsNUjZXrtZ-6" value="&lt;font style=&quot;font-size: 10px&quot;&gt;manages&lt;/font&gt;" style="text;html=1;strokeColor=none;fillColor=none;align=center;verticalAlign=middle;whiteSpace=wrap;rounded=0;" parent="51R45vY43iT_jdcogSZ9-1" vertex="1">
          <mxGeometry x="-1770" y="-982" width="60" height="20" as="geometry" />
        </mxCell>
        <mxCell id="OpHWaJ8LRmHsNUjZXrtZ-12" value="OSM Data" style="text;html=1;strokeColor=none;fillColor=none;align=center;verticalAlign=middle;whiteSpace=wrap;rounded=0;dashed=1;fontStyle=1" parent="51R45vY43iT_jdcogSZ9-1" vertex="1">
          <mxGeometry x="-1940.62" y="-1472.5" width="70" height="20" as="geometry" />
        </mxCell>
        <mxCell id="OpHWaJ8LRmHsNUjZXrtZ-13" value="OSM Edits" style="text;html=1;strokeColor=none;fillColor=none;align=center;verticalAlign=middle;whiteSpace=wrap;rounded=0;dashed=1;fontStyle=1" parent="51R45vY43iT_jdcogSZ9-1" vertex="1">
          <mxGeometry x="-1880" y="-1131" width="70" height="20" as="geometry" />
        </mxCell>
        <mxCell id="OpHWaJ8LRmHsNUjZXrtZ-17" value="&lt;font style=&quot;font-size: 10px&quot;&gt;get / update&lt;/font&gt;" style="text;html=1;strokeColor=none;fillColor=none;align=center;verticalAlign=middle;whiteSpace=wrap;rounded=0;" parent="51R45vY43iT_jdcogSZ9-1" vertex="1">
          <mxGeometry x="-2065" y="-1054.5" width="60" height="20" as="geometry" />
        </mxCell>
        <mxCell id="haxzHKYdSKyFWuCFPDV8-3" style="edgeStyle=orthogonalEdgeStyle;rounded=0;orthogonalLoop=1;jettySize=auto;html=1;" parent="51R45vY43iT_jdcogSZ9-1" source="haxzHKYdSKyFWuCFPDV8-0" target="OpHWaJ8LRmHsNUjZXrtZ-1" edge="1">
          <mxGeometry relative="1" as="geometry">
            <Array as="points">
              <mxPoint x="-1460" y="-1370" />
              <mxPoint x="-1610" y="-1370" />
              <mxPoint x="-1610" y="-1090" />
            </Array>
          </mxGeometry>
        </mxCell>
        <mxCell id="QY3dAXldMmGXDqD0ICGD-0" style="edgeStyle=orthogonalEdgeStyle;rounded=0;orthogonalLoop=1;jettySize=auto;html=1;entryX=1;entryY=0.5;entryDx=0;entryDy=0;" parent="51R45vY43iT_jdcogSZ9-1" source="haxzHKYdSKyFWuCFPDV8-0" target="mesm_kIDOi0JZ5hnJyv2-11" edge="1">
          <mxGeometry relative="1" as="geometry">
            <Array as="points">
              <mxPoint x="-1520.62" y="-1410" />
              <mxPoint x="-1520.62" y="-1410" />
            </Array>
          </mxGeometry>
        </mxCell>
        <mxCell id="haxzHKYdSKyFWuCFPDV8-0" value="MapData&lt;br&gt;WithEdits&lt;br&gt;Source" style="rounded=0;whiteSpace=wrap;html=1;fillColor=#dae8fc;strokeColor=#6c8ebf;shadow=1;" parent="51R45vY43iT_jdcogSZ9-1" vertex="1">
          <mxGeometry x="-1504.62" y="-1435" width="90" height="45" as="geometry" />
        </mxCell>
        <mxCell id="haxzHKYdSKyFWuCFPDV8-4" value="&lt;font style=&quot;font-size: 10px&quot;&gt;listen to&lt;br&gt;&lt;font&gt;updates&lt;/font&gt;&lt;br&gt;&lt;/font&gt;" style="text;html=1;align=center;verticalAlign=middle;whiteSpace=wrap;rounded=0;" parent="51R45vY43iT_jdcogSZ9-1" vertex="1">
          <mxGeometry x="-1585.62" y="-1405" width="90" height="20" as="geometry" />
        </mxCell>
        <mxCell id="haxzHKYdSKyFWuCFPDV8-5" value="&lt;font style=&quot;font-size: 10px&quot;&gt;listen to &lt;font&gt;updates&lt;/font&gt;&lt;br&gt;&lt;/font&gt;" style="text;html=1;align=center;verticalAlign=middle;whiteSpace=wrap;rounded=0;" parent="51R45vY43iT_jdcogSZ9-1" vertex="1">
          <mxGeometry x="-1201.68" y="-1535" width="90" height="20" as="geometry" />
        </mxCell>
        <mxCell id="KoYR2n-7WcHbPKtnemoo-55" style="edgeStyle=orthogonalEdgeStyle;rounded=0;orthogonalLoop=1;jettySize=auto;html=1;" parent="51R45vY43iT_jdcogSZ9-1" source="KoYR2n-7WcHbPKtnemoo-0" target="OpHWaJ8LRmHsNUjZXrtZ-1" edge="1">
          <mxGeometry relative="1" as="geometry" />
        </mxCell>
        <mxCell id="KoYR2n-7WcHbPKtnemoo-56" style="edgeStyle=orthogonalEdgeStyle;rounded=0;orthogonalLoop=1;jettySize=auto;html=1;jumpStyle=arc;jumpSize=17;" parent="51R45vY43iT_jdcogSZ9-1" source="KoYR2n-7WcHbPKtnemoo-0" target="KoYR2n-7WcHbPKtnemoo-7" edge="1">
          <mxGeometry relative="1" as="geometry">
            <Array as="points">
              <mxPoint x="-1590" y="-1077" />
              <mxPoint x="-1590" y="-1810" />
            </Array>
          </mxGeometry>
        </mxCell>
        <mxCell id="KoYR2n-7WcHbPKtnemoo-0" value="Unsynced&lt;br&gt;ChangesCount&lt;br&gt;Source" style="rounded=0;whiteSpace=wrap;html=1;fillColor=#dae8fc;strokeColor=#6c8ebf;shadow=1;" parent="51R45vY43iT_jdcogSZ9-1" vertex="1">
          <mxGeometry x="-1504" y="-1099.5" width="90" height="45" as="geometry" />
        </mxCell>
        <mxCell id="KoYR2n-7WcHbPKtnemoo-2" value="" style="rounded=0;whiteSpace=wrap;html=1;fillColor=none;dashed=1;" parent="51R45vY43iT_jdcogSZ9-1" vertex="1">
          <mxGeometry x="-1814" y="-1850" width="164" height="210" as="geometry" />
        </mxCell>
        <mxCell id="KoYR2n-7WcHbPKtnemoo-3" value="NoteEditsDao" style="shape=cylinder3;whiteSpace=wrap;html=1;boundedLbl=1;backgroundOutline=1;size=4.333333333333627;fillColor=#f5f5f5;strokeColor=#666666;fontColor=#333333;" parent="51R45vY43iT_jdcogSZ9-1" vertex="1">
          <mxGeometry x="-1777.73" y="-1701.25" width="89" height="41.25" as="geometry" />
        </mxCell>
        <mxCell id="KoYR2n-7WcHbPKtnemoo-4" style="edgeStyle=orthogonalEdgeStyle;rounded=0;orthogonalLoop=1;jettySize=auto;html=1;entryX=0.5;entryY=1;entryDx=0;entryDy=0;" parent="51R45vY43iT_jdcogSZ9-1" source="KoYR2n-7WcHbPKtnemoo-6" target="KoYR2n-7WcHbPKtnemoo-7" edge="1">
          <mxGeometry relative="1" as="geometry" />
        </mxCell>
        <mxCell id="KoYR2n-7WcHbPKtnemoo-10" style="edgeStyle=orthogonalEdgeStyle;rounded=0;orthogonalLoop=1;jettySize=auto;html=1;" parent="51R45vY43iT_jdcogSZ9-1" source="KoYR2n-7WcHbPKtnemoo-6" target="KoYR2n-7WcHbPKtnemoo-3" edge="1">
          <mxGeometry relative="1" as="geometry" />
        </mxCell>
        <mxCell id="KoYR2n-7WcHbPKtnemoo-6" value="NoteEditsController" style="rounded=0;whiteSpace=wrap;html=1;fillColor=#dae8fc;strokeColor=#6c8ebf;shadow=1;" parent="51R45vY43iT_jdcogSZ9-1" vertex="1">
          <mxGeometry x="-1794" y="-1770" width="121.55" height="25" as="geometry" />
        </mxCell>
        <mxCell id="KoYR2n-7WcHbPKtnemoo-7" value="NoteEditsSource" style="rounded=0;whiteSpace=wrap;html=1;fillColor=#d5e8d4;strokeColor=#82b366;" parent="51R45vY43iT_jdcogSZ9-1" vertex="1">
          <mxGeometry x="-1789.55" y="-1830" width="111.55" height="21" as="geometry" />
        </mxCell>
        <mxCell id="KoYR2n-7WcHbPKtnemoo-8" value="OSM Note Edits" style="text;html=1;strokeColor=none;fillColor=none;align=center;verticalAlign=middle;whiteSpace=wrap;rounded=0;dashed=1;fontStyle=1" parent="51R45vY43iT_jdcogSZ9-1" vertex="1">
          <mxGeometry x="-1814" y="-1870" width="97.18" height="20" as="geometry" />
        </mxCell>
        <mxCell id="KoYR2n-7WcHbPKtnemoo-9" value="&lt;font style=&quot;font-size: 10px&quot;&gt;implements&lt;/font&gt;" style="text;html=1;strokeColor=none;fillColor=none;align=center;verticalAlign=middle;whiteSpace=wrap;rounded=0;" parent="51R45vY43iT_jdcogSZ9-1" vertex="1">
          <mxGeometry x="-1718" y="-1800" width="40" height="20" as="geometry" />
        </mxCell>
        <mxCell id="KoYR2n-7WcHbPKtnemoo-11" value="&lt;font style=&quot;font-size: 10px&quot;&gt;manages&lt;/font&gt;" style="text;html=1;strokeColor=none;fillColor=none;align=center;verticalAlign=middle;whiteSpace=wrap;rounded=0;" parent="51R45vY43iT_jdcogSZ9-1" vertex="1">
          <mxGeometry x="-1732.45" y="-1730" width="60" height="20" as="geometry" />
        </mxCell>
        <mxCell id="KoYR2n-7WcHbPKtnemoo-13" style="edgeStyle=orthogonalEdgeStyle;rounded=0;orthogonalLoop=1;jettySize=auto;html=1;" parent="51R45vY43iT_jdcogSZ9-1" source="KoYR2n-7WcHbPKtnemoo-12" target="KoYR2n-7WcHbPKtnemoo-6" edge="1">
          <mxGeometry relative="1" as="geometry" />
        </mxCell>
        <mxCell id="KoYR2n-7WcHbPKtnemoo-15" style="edgeStyle=orthogonalEdgeStyle;rounded=0;orthogonalLoop=1;jettySize=auto;html=1;" parent="51R45vY43iT_jdcogSZ9-1" source="KoYR2n-7WcHbPKtnemoo-12" target="mesm_kIDOi0JZ5hnJyv2-9" edge="1">
          <mxGeometry relative="1" as="geometry">
            <Array as="points">
              <mxPoint x="-2044" y="-2000" />
            </Array>
          </mxGeometry>
        </mxCell>
        <mxCell id="KoYR2n-7WcHbPKtnemoo-27" style="edgeStyle=orthogonalEdgeStyle;rounded=0;orthogonalLoop=1;jettySize=auto;html=1;" parent="51R45vY43iT_jdcogSZ9-1" source="KoYR2n-7WcHbPKtnemoo-12" target="KoYR2n-7WcHbPKtnemoo-19" edge="1">
          <mxGeometry relative="1" as="geometry">
            <Array as="points">
              <mxPoint x="-2135" y="-1757" />
              <mxPoint x="-2135" y="-1775" />
            </Array>
          </mxGeometry>
        </mxCell>
        <mxCell id="KoYR2n-7WcHbPKtnemoo-28" style="edgeStyle=orthogonalEdgeStyle;rounded=0;orthogonalLoop=1;jettySize=auto;html=1;" parent="51R45vY43iT_jdcogSZ9-1" source="KoYR2n-7WcHbPKtnemoo-12" target="KoYR2n-7WcHbPKtnemoo-22" edge="1">
          <mxGeometry relative="1" as="geometry">
            <Array as="points">
              <mxPoint x="-2135" y="-1757" />
            </Array>
          </mxGeometry>
        </mxCell>
        <mxCell id="KoYR2n-7WcHbPKtnemoo-12" value="NoteEditsUploader" style="rounded=0;whiteSpace=wrap;html=1;fillColor=#ffe6cc;strokeColor=#d79b00;" parent="51R45vY43iT_jdcogSZ9-1" vertex="1">
          <mxGeometry x="-2104" y="-1770" width="120" height="25" as="geometry" />
        </mxCell>
        <mxCell id="KoYR2n-7WcHbPKtnemoo-14" value="&lt;font style=&quot;font-size: 10px&quot;&gt;get / update&lt;/font&gt;" style="text;html=1;strokeColor=none;fillColor=none;align=center;verticalAlign=middle;whiteSpace=wrap;rounded=0;" parent="51R45vY43iT_jdcogSZ9-1" vertex="1">
          <mxGeometry x="-1925.75" y="-1755" width="80" height="20" as="geometry" />
        </mxCell>
        <mxCell id="KoYR2n-7WcHbPKtnemoo-17" value="&lt;font style=&quot;font-size: 10px&quot;&gt;update&lt;/font&gt;" style="text;html=1;strokeColor=none;fillColor=none;align=center;verticalAlign=middle;whiteSpace=wrap;rounded=0;" parent="51R45vY43iT_jdcogSZ9-1" vertex="1">
          <mxGeometry x="-2035.5" y="-2000" width="40" height="20" as="geometry" />
        </mxCell>
        <mxCell id="KoYR2n-7WcHbPKtnemoo-19" value="NotesApi" style="ellipse;shape=cloud;whiteSpace=wrap;html=1;fillColor=white;" parent="51R45vY43iT_jdcogSZ9-1" vertex="1">
          <mxGeometry x="-2180.5" y="-1820" width="90" height="35" as="geometry" />
        </mxCell>
        <mxCell id="KoYR2n-7WcHbPKtnemoo-20" value="&lt;font style=&quot;font-size: 10px&quot;&gt;talks with&lt;/font&gt;" style="text;html=1;strokeColor=none;fillColor=none;align=center;verticalAlign=middle;whiteSpace=wrap;rounded=0;" parent="51R45vY43iT_jdcogSZ9-1" vertex="1">
          <mxGeometry x="-2195.5" y="-1765" width="55.5" height="20" as="geometry" />
        </mxCell>
        <mxCell id="KoYR2n-7WcHbPKtnemoo-22" value="StreetComplete&lt;br&gt;ImageUploader" style="ellipse;shape=cloud;whiteSpace=wrap;html=1;fillColor=white;" parent="51R45vY43iT_jdcogSZ9-1" vertex="1">
          <mxGeometry x="-2190" y="-1735" width="130" height="55" as="geometry" />
        </mxCell>
        <mxCell id="KoYR2n-7WcHbPKtnemoo-42" style="edgeStyle=orthogonalEdgeStyle;rounded=0;orthogonalLoop=1;jettySize=auto;html=1;entryX=1;entryY=0.5;entryDx=0;entryDy=0;" parent="51R45vY43iT_jdcogSZ9-1" source="KoYR2n-7WcHbPKtnemoo-24" target="KoYR2n-7WcHbPKtnemoo-7" edge="1">
          <mxGeometry relative="1" as="geometry" />
        </mxCell>
        <mxCell id="KoYR2n-7WcHbPKtnemoo-54" style="edgeStyle=orthogonalEdgeStyle;rounded=0;orthogonalLoop=1;jettySize=auto;html=1;" parent="51R45vY43iT_jdcogSZ9-1" source="KoYR2n-7WcHbPKtnemoo-24" target="mesm_kIDOi0JZ5hnJyv2-9" edge="1">
          <mxGeometry relative="1" as="geometry">
            <Array as="points">
              <mxPoint x="-1590" y="-1860" />
              <mxPoint x="-1590" y="-2000" />
            </Array>
          </mxGeometry>
        </mxCell>
        <mxCell id="KoYR2n-7WcHbPKtnemoo-24" value="NotesWith&lt;br&gt;EditsSource" style="rounded=0;whiteSpace=wrap;html=1;fillColor=#dae8fc;strokeColor=#6c8ebf;shadow=1;" parent="51R45vY43iT_jdcogSZ9-1" vertex="1">
          <mxGeometry x="-1504" y="-1882.5" width="90" height="45" as="geometry" />
        </mxCell>
        <mxCell id="KoYR2n-7WcHbPKtnemoo-29" value="OSM Note Upload" style="text;html=1;strokeColor=none;fillColor=none;align=center;verticalAlign=middle;whiteSpace=wrap;rounded=0;dashed=1;fontStyle=1" parent="51R45vY43iT_jdcogSZ9-1" vertex="1">
          <mxGeometry x="-2200" y="-1860" width="110" height="20" as="geometry" />
        </mxCell>
        <mxCell id="KoYR2n-7WcHbPKtnemoo-31" value="OSM Note Download" style="text;html=1;strokeColor=none;fillColor=none;align=center;verticalAlign=middle;whiteSpace=wrap;rounded=0;dashed=1;fontStyle=1" parent="51R45vY43iT_jdcogSZ9-1" vertex="1">
          <mxGeometry x="-2109.5" y="-2220" width="129.5" height="20" as="geometry" />
        </mxCell>
        <mxCell id="KoYR2n-7WcHbPKtnemoo-39" value="deletes data from&lt;br&gt;NoteController,&lt;br&gt;NoteEditsController,&lt;br&gt;MapDataController,&lt;br&gt;ElementEditsController,&lt;br&gt;AchievementsController&lt;br&gt;&lt;br&gt;Arrows now shown" style="text;html=1;strokeColor=none;fillColor=none;align=center;verticalAlign=middle;whiteSpace=wrap;rounded=0;" parent="51R45vY43iT_jdcogSZ9-1" vertex="1">
          <mxGeometry x="-2410" y="-2138.75" width="130" height="118.75" as="geometry" />
        </mxCell>
        <mxCell id="KoYR2n-7WcHbPKtnemoo-43" value="&lt;font style=&quot;font-size: 10px&quot;&gt;listen to &lt;font&gt;updates&lt;/font&gt;&lt;br&gt;&lt;/font&gt;" style="text;html=1;align=center;verticalAlign=middle;whiteSpace=wrap;rounded=0;" parent="51R45vY43iT_jdcogSZ9-1" vertex="1">
          <mxGeometry x="-1590" y="-1857.5" width="90" height="20" as="geometry" />
        </mxCell>
        <mxCell id="KoYR2n-7WcHbPKtnemoo-57" value="&lt;font style=&quot;font-size: 10px&quot;&gt;listen to &lt;font&gt;updates&lt;/font&gt;&lt;br&gt;&lt;/font&gt;" style="text;html=1;align=center;verticalAlign=middle;whiteSpace=wrap;rounded=0;" parent="51R45vY43iT_jdcogSZ9-1" vertex="1">
          <mxGeometry x="-1610" y="-1074.5" width="90" height="20" as="geometry" />
        </mxCell>
        <mxCell id="KoYR2n-7WcHbPKtnemoo-59" style="edgeStyle=orthogonalEdgeStyle;rounded=1;jumpStyle=arc;jumpSize=17;orthogonalLoop=1;jettySize=auto;html=1;entryX=1;entryY=0.5;entryDx=0;entryDy=0;curved=0;" parent="51R45vY43iT_jdcogSZ9-1" source="KoYR2n-7WcHbPKtnemoo-58" target="KoYR2n-7WcHbPKtnemoo-6" edge="1">
          <mxGeometry relative="1" as="geometry">
            <Array as="points">
              <mxPoint x="-1330" y="-1060" />
              <mxPoint x="-1330" y="-1757" />
            </Array>
          </mxGeometry>
        </mxCell>
        <mxCell id="KoYR2n-7WcHbPKtnemoo-61" style="edgeStyle=orthogonalEdgeStyle;rounded=1;jumpStyle=arc;jumpSize=17;orthogonalLoop=1;jettySize=auto;html=1;entryX=1;entryY=0.5;entryDx=0;entryDy=0;curved=0;" parent="51R45vY43iT_jdcogSZ9-1" source="KoYR2n-7WcHbPKtnemoo-58" target="OpHWaJ8LRmHsNUjZXrtZ-0" edge="1">
          <mxGeometry relative="1" as="geometry">
            <Array as="points">
              <mxPoint x="-1330" y="-1060" />
              <mxPoint x="-1330" y="-1006" />
            </Array>
          </mxGeometry>
        </mxCell>
        <mxCell id="hFg9hX0hkgG3b_Ne6C7V-1" style="edgeStyle=orthogonalEdgeStyle;rounded=0;orthogonalLoop=1;jettySize=auto;html=1;" parent="51R45vY43iT_jdcogSZ9-1" source="KoYR2n-7WcHbPKtnemoo-58" target="hFg9hX0hkgG3b_Ne6C7V-0" edge="1">
          <mxGeometry relative="1" as="geometry" />
        </mxCell>
        <mxCell id="KoYR2n-7WcHbPKtnemoo-58" value="EditHistory&lt;br&gt;Controller" style="rounded=0;whiteSpace=wrap;html=1;fillColor=#dae8fc;strokeColor=#6c8ebf;shadow=1;" parent="51R45vY43iT_jdcogSZ9-1" vertex="1">
          <mxGeometry x="-640" y="-1086" width="107" height="45" as="geometry" />
        </mxCell>
        <mxCell id="KoYR2n-7WcHbPKtnemoo-60" value="&lt;font style=&quot;font-size: 10px&quot;&gt;update /&lt;br&gt;listen to updates&lt;br&gt;&lt;/font&gt;" style="text;html=1;align=center;verticalAlign=middle;whiteSpace=wrap;rounded=0;" parent="51R45vY43iT_jdcogSZ9-1" vertex="1">
          <mxGeometry x="-760" y="-1049.5" width="110" height="20" as="geometry" />
        </mxCell>
        <mxCell id="e882vHLFMe0ZeBiDDTnJ-30" value="TeamMode&lt;br&gt;QuestFilter" style="rounded=0;whiteSpace=wrap;html=1;fillColor=#dae8fc;strokeColor=#6c8ebf;shadow=1;" parent="51R45vY43iT_jdcogSZ9-1" vertex="1">
          <mxGeometry x="-848.75" y="-1870" width="80" height="50" as="geometry" />
        </mxCell>
        <mxCell id="e882vHLFMe0ZeBiDDTnJ-32" value="&lt;font style=&quot;font-size: 10px&quot;&gt;listen to updates&lt;/font&gt;" style="text;html=1;fillColor=none;align=center;verticalAlign=middle;whiteSpace=wrap;rounded=0;" parent="51R45vY43iT_jdcogSZ9-1" vertex="1">
          <mxGeometry x="-803.75" y="-1790" width="90" height="20" as="geometry" />
        </mxCell>
        <mxCell id="hFg9hX0hkgG3b_Ne6C7V-0" value="EditHistory&lt;br&gt;Source" style="rounded=0;whiteSpace=wrap;html=1;fillColor=#d5e8d4;strokeColor=#82b366;" parent="51R45vY43iT_jdcogSZ9-1" vertex="1">
          <mxGeometry x="-626.75" y="-1170" width="80.5" height="40" as="geometry" />
        </mxCell>
        <mxCell id="hFg9hX0hkgG3b_Ne6C7V-2" value="&lt;font style=&quot;font-size: 10px&quot;&gt;implements&lt;/font&gt;" style="text;html=1;strokeColor=none;fillColor=none;align=center;verticalAlign=middle;whiteSpace=wrap;rounded=0;" parent="51R45vY43iT_jdcogSZ9-1" vertex="1">
          <mxGeometry x="-573" y="-1110" width="40" height="20" as="geometry" />
        </mxCell>
        <mxCell id="hFg9hX0hkgG3b_Ne6C7V-3" value="" style="rounded=0;whiteSpace=wrap;html=1;dashed=1;fillColor=none;" parent="51R45vY43iT_jdcogSZ9-1" vertex="1">
          <mxGeometry x="-653" y="-1190" width="133" height="168.75" as="geometry" />
        </mxCell>
        <mxCell id="hFg9hX0hkgG3b_Ne6C7V-4" value="Edits" style="text;html=1;strokeColor=none;fillColor=none;align=center;verticalAlign=middle;whiteSpace=wrap;rounded=0;dashed=1;fontStyle=1" parent="51R45vY43iT_jdcogSZ9-1" vertex="1">
          <mxGeometry x="-653" y="-1210" width="80" height="20" as="geometry" />
        </mxCell>
        <mxCell id="YX7DY6hhiVBJLy7tZqFC-0" value="" style="rounded=0;whiteSpace=wrap;html=1;fillColor=none;dashed=1;" parent="51R45vY43iT_jdcogSZ9-1" vertex="1">
          <mxGeometry x="-1394.63" y="-600" width="230" height="240" as="geometry" />
        </mxCell>
        <mxCell id="YX7DY6hhiVBJLy7tZqFC-1" value="User Statistics" style="text;html=1;strokeColor=none;fillColor=none;align=center;verticalAlign=middle;whiteSpace=wrap;rounded=0;dashed=1;fontStyle=1" parent="51R45vY43iT_jdcogSZ9-1" vertex="1">
          <mxGeometry x="-1394.63" y="-620" width="100" height="20" as="geometry" />
        </mxCell>
        <mxCell id="YX7DY6hhiVBJLy7tZqFC-5" style="edgeStyle=orthogonalEdgeStyle;rounded=0;orthogonalLoop=1;jettySize=auto;html=1;" parent="51R45vY43iT_jdcogSZ9-1" source="YX7DY6hhiVBJLy7tZqFC-2" target="YX7DY6hhiVBJLy7tZqFC-3" edge="1">
          <mxGeometry relative="1" as="geometry" />
        </mxCell>
        <mxCell id="YX7DY6hhiVBJLy7tZqFC-6" style="edgeStyle=orthogonalEdgeStyle;rounded=0;orthogonalLoop=1;jettySize=auto;html=1;" parent="51R45vY43iT_jdcogSZ9-1" source="YX7DY6hhiVBJLy7tZqFC-2" target="YX7DY6hhiVBJLy7tZqFC-4" edge="1">
          <mxGeometry relative="1" as="geometry" />
        </mxCell>
        <mxCell id="YX7DY6hhiVBJLy7tZqFC-9" style="edgeStyle=orthogonalEdgeStyle;rounded=0;orthogonalLoop=1;jettySize=auto;html=1;entryX=0.5;entryY=1;entryDx=0;entryDy=0;" parent="51R45vY43iT_jdcogSZ9-1" source="YX7DY6hhiVBJLy7tZqFC-2" target="YX7DY6hhiVBJLy7tZqFC-8" edge="1">
          <mxGeometry relative="1" as="geometry" />
        </mxCell>
        <mxCell id="YX7DY6hhiVBJLy7tZqFC-74" style="edgeStyle=orthogonalEdgeStyle;rounded=0;orthogonalLoop=1;jettySize=auto;html=1;entryX=1;entryY=0.5;entryDx=0;entryDy=0;fontSize=24;" parent="51R45vY43iT_jdcogSZ9-1" source="YX7DY6hhiVBJLy7tZqFC-2" target="YX7DY6hhiVBJLy7tZqFC-66" edge="1">
          <mxGeometry relative="1" as="geometry">
            <Array as="points">
              <mxPoint x="-1530" y="-495" />
              <mxPoint x="-1530" y="-673" />
            </Array>
          </mxGeometry>
        </mxCell>
        <mxCell id="YX7DY6hhiVBJLy7tZqFC-2" value="Statistics&lt;br&gt;Controller" style="rounded=0;whiteSpace=wrap;html=1;fillColor=#dae8fc;strokeColor=#6c8ebf;shadow=1;fontColor=default;" parent="51R45vY43iT_jdcogSZ9-1" vertex="1">
          <mxGeometry x="-1324.63" y="-514.75" width="90" height="40" as="geometry" />
        </mxCell>
        <mxCell id="YX7DY6hhiVBJLy7tZqFC-3" value="Country&lt;br&gt;StatisticsDao" style="shape=cylinder3;whiteSpace=wrap;html=1;boundedLbl=1;backgroundOutline=1;size=4.333333333333627;fillColor=#f5f5f5;strokeColor=#666666;fontColor=#333333;" parent="51R45vY43iT_jdcogSZ9-1" vertex="1">
          <mxGeometry x="-1374.63" y="-420" width="80" height="41.25" as="geometry" />
        </mxCell>
        <mxCell id="YX7DY6hhiVBJLy7tZqFC-4" value="QuestType&lt;br&gt;StatisticsDao" style="shape=cylinder3;whiteSpace=wrap;html=1;boundedLbl=1;backgroundOutline=1;size=4.333333333333627;fillColor=#f5f5f5;strokeColor=#666666;fontColor=#333333;" parent="51R45vY43iT_jdcogSZ9-1" vertex="1">
          <mxGeometry x="-1274.63" y="-420" width="80" height="41.25" as="geometry" />
        </mxCell>
        <mxCell id="YX7DY6hhiVBJLy7tZqFC-7" value="&lt;font style=&quot;font-size: 10px&quot;&gt;manages&lt;/font&gt;" style="text;html=1;strokeColor=none;fillColor=none;align=center;verticalAlign=middle;whiteSpace=wrap;rounded=0;" parent="51R45vY43iT_jdcogSZ9-1" vertex="1">
          <mxGeometry x="-1284.63" y="-468.25" width="60" height="20" as="geometry" />
        </mxCell>
        <mxCell id="YX7DY6hhiVBJLy7tZqFC-8" value="Statistics&lt;br&gt;Source" style="rounded=0;whiteSpace=wrap;html=1;fillColor=#d5e8d4;strokeColor=#82b366;fontColor=default;" parent="51R45vY43iT_jdcogSZ9-1" vertex="1">
          <mxGeometry x="-1324.63" y="-575.75" width="90" height="30" as="geometry" />
        </mxCell>
        <mxCell id="YX7DY6hhiVBJLy7tZqFC-10" value="&lt;font style=&quot;font-size: 10px&quot;&gt;implements&lt;/font&gt;" style="text;html=1;strokeColor=none;fillColor=none;align=center;verticalAlign=middle;whiteSpace=wrap;rounded=0;" parent="51R45vY43iT_jdcogSZ9-1" vertex="1">
          <mxGeometry x="-1267.4500000000003" y="-540.25" width="55.63" height="20" as="geometry" />
        </mxCell>
        <mxCell id="YX7DY6hhiVBJLy7tZqFC-11" value="" style="rounded=0;whiteSpace=wrap;html=1;fillColor=none;dashed=1;" parent="51R45vY43iT_jdcogSZ9-1" vertex="1">
          <mxGeometry x="-1111.68" y="-600" width="230" height="240" as="geometry" />
        </mxCell>
        <mxCell id="YX7DY6hhiVBJLy7tZqFC-12" value="User Achievements" style="text;html=1;strokeColor=none;fillColor=none;align=center;verticalAlign=middle;whiteSpace=wrap;rounded=0;dashed=1;fontStyle=1" parent="51R45vY43iT_jdcogSZ9-1" vertex="1">
          <mxGeometry x="-1116.13" y="-620" width="131.5" height="20" as="geometry" />
        </mxCell>
        <mxCell id="YX7DY6hhiVBJLy7tZqFC-13" style="edgeStyle=orthogonalEdgeStyle;rounded=0;orthogonalLoop=1;jettySize=auto;html=1;" parent="51R45vY43iT_jdcogSZ9-1" source="YX7DY6hhiVBJLy7tZqFC-16" target="YX7DY6hhiVBJLy7tZqFC-17" edge="1">
          <mxGeometry relative="1" as="geometry">
            <Array as="points">
              <mxPoint x="-977.68" y="-450" />
              <mxPoint x="-1038.68" y="-450" />
            </Array>
          </mxGeometry>
        </mxCell>
        <mxCell id="YX7DY6hhiVBJLy7tZqFC-14" style="edgeStyle=orthogonalEdgeStyle;rounded=0;orthogonalLoop=1;jettySize=auto;html=1;" parent="51R45vY43iT_jdcogSZ9-1" source="YX7DY6hhiVBJLy7tZqFC-16" target="YX7DY6hhiVBJLy7tZqFC-18" edge="1">
          <mxGeometry relative="1" as="geometry" />
        </mxCell>
        <mxCell id="YX7DY6hhiVBJLy7tZqFC-24" style="edgeStyle=orthogonalEdgeStyle;rounded=0;orthogonalLoop=1;jettySize=auto;html=1;entryX=1;entryY=0.5;entryDx=0;entryDy=0;" parent="51R45vY43iT_jdcogSZ9-1" source="YX7DY6hhiVBJLy7tZqFC-16" target="YX7DY6hhiVBJLy7tZqFC-8" edge="1">
          <mxGeometry relative="1" as="geometry">
            <Array as="points">
              <mxPoint x="-1180" y="-500" />
              <mxPoint x="-1180" y="-561" />
            </Array>
          </mxGeometry>
        </mxCell>
        <mxCell id="GZwTR7FfA2kz4ncZKBoM-0" style="edgeStyle=orthogonalEdgeStyle;rounded=0;orthogonalLoop=1;jettySize=auto;html=1;" parent="51R45vY43iT_jdcogSZ9-1" source="YX7DY6hhiVBJLy7tZqFC-16" target="YX7DY6hhiVBJLy7tZqFC-20" edge="1">
          <mxGeometry relative="1" as="geometry" />
        </mxCell>
        <mxCell id="YX7DY6hhiVBJLy7tZqFC-16" value="Achievements&lt;br&gt;Controller" style="rounded=0;whiteSpace=wrap;html=1;fillColor=#dae8fc;strokeColor=#6c8ebf;shadow=1;fontColor=default;" parent="51R45vY43iT_jdcogSZ9-1" vertex="1">
          <mxGeometry x="-1022.68" y="-520.25" width="90" height="40.75" as="geometry" />
        </mxCell>
        <mxCell id="YX7DY6hhiVBJLy7tZqFC-17" value="User&lt;br&gt;AchievementsDao" style="shape=cylinder3;whiteSpace=wrap;html=1;boundedLbl=1;backgroundOutline=1;size=4.333333333333627;fillColor=#f5f5f5;strokeColor=#666666;fontColor=#333333;" parent="51R45vY43iT_jdcogSZ9-1" vertex="1">
          <mxGeometry x="-1093.68" y="-420" width="110" height="41.25" as="geometry" />
        </mxCell>
        <mxCell id="YX7DY6hhiVBJLy7tZqFC-18" value="User&lt;br&gt;LinksDao" style="shape=cylinder3;whiteSpace=wrap;html=1;boundedLbl=1;backgroundOutline=1;size=4.333333333333627;fillColor=#f5f5f5;strokeColor=#666666;fontColor=#333333;" parent="51R45vY43iT_jdcogSZ9-1" vertex="1">
          <mxGeometry x="-967.31" y="-420" width="60" height="41.25" as="geometry" />
        </mxCell>
        <mxCell id="YX7DY6hhiVBJLy7tZqFC-19" value="&lt;font style=&quot;font-size: 10px&quot;&gt;manages&lt;/font&gt;" style="text;html=1;strokeColor=none;fillColor=none;align=center;verticalAlign=middle;whiteSpace=wrap;rounded=0;" parent="51R45vY43iT_jdcogSZ9-1" vertex="1">
          <mxGeometry x="-975" y="-474.75" width="60" height="20" as="geometry" />
        </mxCell>
        <mxCell id="YX7DY6hhiVBJLy7tZqFC-20" value="Achievements&lt;br&gt;Source" style="rounded=0;whiteSpace=wrap;html=1;fillColor=#d5e8d4;strokeColor=#82b366;fontColor=default;" parent="51R45vY43iT_jdcogSZ9-1" vertex="1">
          <mxGeometry x="-1036.4" y="-587.37" width="117.19" height="30" as="geometry" />
        </mxCell>
        <mxCell id="YX7DY6hhiVBJLy7tZqFC-21" value="&lt;font style=&quot;font-size: 10px&quot;&gt;implements&lt;/font&gt;" style="text;html=1;strokeColor=none;fillColor=none;align=center;verticalAlign=middle;whiteSpace=wrap;rounded=0;" parent="51R45vY43iT_jdcogSZ9-1" vertex="1">
          <mxGeometry x="-967.3100000000002" y="-545.75" width="55.63" height="20" as="geometry" />
        </mxCell>
        <mxCell id="YX7DY6hhiVBJLy7tZqFC-25" value="&lt;font style=&quot;font-size: 10px&quot;&gt;listen to &lt;font&gt;updates&lt;/font&gt;&lt;br&gt;&lt;/font&gt;" style="text;html=1;align=center;verticalAlign=middle;whiteSpace=wrap;rounded=0;" parent="51R45vY43iT_jdcogSZ9-1" vertex="1">
          <mxGeometry x="-1112.68" y="-520.25" width="90" height="20" as="geometry" />
        </mxCell>
        <mxCell id="YX7DY6hhiVBJLy7tZqFC-28" value="" style="rounded=0;whiteSpace=wrap;html=1;fillColor=none;dashed=1;" parent="51R45vY43iT_jdcogSZ9-1" vertex="1">
          <mxGeometry x="-1394.63" y="-780.25" width="130" height="150" as="geometry" />
        </mxCell>
        <mxCell id="YX7DY6hhiVBJLy7tZqFC-29" value="User Data" style="text;html=1;strokeColor=none;fillColor=none;align=center;verticalAlign=middle;whiteSpace=wrap;rounded=0;dashed=1;fontStyle=1" parent="51R45vY43iT_jdcogSZ9-1" vertex="1">
          <mxGeometry x="-1394.63" y="-800.25" width="70" height="20" as="geometry" />
        </mxCell>
        <mxCell id="YX7DY6hhiVBJLy7tZqFC-32" style="edgeStyle=orthogonalEdgeStyle;rounded=0;orthogonalLoop=1;jettySize=auto;html=1;entryX=0.5;entryY=1;entryDx=0;entryDy=0;" parent="51R45vY43iT_jdcogSZ9-1" source="YX7DY6hhiVBJLy7tZqFC-33" target="YX7DY6hhiVBJLy7tZqFC-37" edge="1">
          <mxGeometry relative="1" as="geometry" />
        </mxCell>
        <mxCell id="YX7DY6hhiVBJLy7tZqFC-71" style="edgeStyle=orthogonalEdgeStyle;rounded=0;orthogonalLoop=1;jettySize=auto;html=1;entryX=1;entryY=0.5;entryDx=0;entryDy=0;" parent="51R45vY43iT_jdcogSZ9-1" source="YX7DY6hhiVBJLy7tZqFC-33" target="YX7DY6hhiVBJLy7tZqFC-66" edge="1">
          <mxGeometry relative="1" as="geometry">
            <Array as="points">
              <mxPoint x="-1450" y="-673" />
              <mxPoint x="-1450" y="-673" />
            </Array>
          </mxGeometry>
        </mxCell>
        <mxCell id="YX7DY6hhiVBJLy7tZqFC-33" value="UserData&lt;br&gt;Controller" style="rounded=0;whiteSpace=wrap;html=1;fillColor=#dae8fc;strokeColor=#6c8ebf;shadow=1;" parent="51R45vY43iT_jdcogSZ9-1" vertex="1">
          <mxGeometry x="-1372.1799999999998" y="-695" width="90" height="40" as="geometry" />
        </mxCell>
        <mxCell id="YX7DY6hhiVBJLy7tZqFC-37" value="UserData&lt;br&gt;Source" style="rounded=0;whiteSpace=wrap;html=1;fillColor=#d5e8d4;strokeColor=#82b366;" parent="51R45vY43iT_jdcogSZ9-1" vertex="1">
          <mxGeometry x="-1372.1799999999998" y="-756" width="90" height="30" as="geometry" />
        </mxCell>
        <mxCell id="YX7DY6hhiVBJLy7tZqFC-38" value="&lt;font style=&quot;font-size: 10px&quot;&gt;implements&lt;/font&gt;" style="text;html=1;strokeColor=none;fillColor=none;align=center;verticalAlign=middle;whiteSpace=wrap;rounded=0;" parent="51R45vY43iT_jdcogSZ9-1" vertex="1">
          <mxGeometry x="-1384.63" y="-715" width="55.63" height="20" as="geometry" />
        </mxCell>
        <mxCell id="YX7DY6hhiVBJLy7tZqFC-40" style="edgeStyle=orthogonalEdgeStyle;rounded=0;jumpStyle=arc;jumpSize=8;orthogonalLoop=1;jettySize=auto;html=1;" parent="51R45vY43iT_jdcogSZ9-1" source="YX7DY6hhiVBJLy7tZqFC-41" target="YX7DY6hhiVBJLy7tZqFC-42" edge="1">
          <mxGeometry relative="1" as="geometry">
            <Array as="points">
              <mxPoint x="-1695" y="-287.25" />
              <mxPoint x="-1695" y="-287.25" />
            </Array>
          </mxGeometry>
        </mxCell>
        <mxCell id="YX7DY6hhiVBJLy7tZqFC-41" value="Avatars&lt;br&gt;Downloader" style="rounded=0;whiteSpace=wrap;html=1;fillColor=#ffe6cc;strokeColor=#d79b00;" parent="51R45vY43iT_jdcogSZ9-1" vertex="1">
          <mxGeometry x="-1715" y="-300.25" width="100" height="30" as="geometry" />
        </mxCell>
        <mxCell id="YX7DY6hhiVBJLy7tZqFC-42" value="UserApi" style="ellipse;shape=cloud;whiteSpace=wrap;html=1;fillColor=white;" parent="51R45vY43iT_jdcogSZ9-1" vertex="1">
          <mxGeometry x="-1857.75" y="-305.25" width="90" height="35" as="geometry" />
        </mxCell>
        <mxCell id="YX7DY6hhiVBJLy7tZqFC-43" value="&lt;font style=&quot;font-size: 10px&quot;&gt;talks with&lt;/font&gt;" style="text;html=1;strokeColor=none;fillColor=none;align=center;verticalAlign=middle;whiteSpace=wrap;rounded=0;" parent="51R45vY43iT_jdcogSZ9-1" vertex="1">
          <mxGeometry x="-1810.5" y="-355.25" width="55.5" height="20" as="geometry" />
        </mxCell>
        <mxCell id="YX7DY6hhiVBJLy7tZqFC-44" value="Statistics&lt;br&gt;Downloader" style="rounded=0;whiteSpace=wrap;html=1;fillColor=#ffe6cc;strokeColor=#d79b00;" parent="51R45vY43iT_jdcogSZ9-1" vertex="1">
          <mxGeometry x="-1715" y="-355.25" width="100" height="30" as="geometry" />
        </mxCell>
        <mxCell id="YX7DY6hhiVBJLy7tZqFC-50" style="edgeStyle=orthogonalEdgeStyle;rounded=0;orthogonalLoop=1;jettySize=auto;html=1;entryX=1;entryY=0.5;entryDx=0;entryDy=0;" parent="51R45vY43iT_jdcogSZ9-1" source="YX7DY6hhiVBJLy7tZqFC-49" target="YX7DY6hhiVBJLy7tZqFC-41" edge="1">
          <mxGeometry relative="1" as="geometry">
            <Array as="points">
              <mxPoint x="-1585" y="-285.25" />
              <mxPoint x="-1585" y="-285.25" />
            </Array>
          </mxGeometry>
        </mxCell>
        <mxCell id="YX7DY6hhiVBJLy7tZqFC-53" style="edgeStyle=orthogonalEdgeStyle;rounded=0;orthogonalLoop=1;jettySize=auto;html=1;" parent="51R45vY43iT_jdcogSZ9-1" source="YX7DY6hhiVBJLy7tZqFC-49" target="YX7DY6hhiVBJLy7tZqFC-42" edge="1">
          <mxGeometry relative="1" as="geometry">
            <mxPoint x="-1761.75" y="-212.75" as="targetPoint" />
            <Array as="points">
              <mxPoint x="-1745" y="-405.25" />
              <mxPoint x="-1745" y="-285.25" />
            </Array>
          </mxGeometry>
        </mxCell>
        <mxCell id="YX7DY6hhiVBJLy7tZqFC-54" style="edgeStyle=orthogonalEdgeStyle;rounded=0;orthogonalLoop=1;jettySize=auto;html=1;entryX=1;entryY=0.5;entryDx=0;entryDy=0;" parent="51R45vY43iT_jdcogSZ9-1" source="YX7DY6hhiVBJLy7tZqFC-49" target="YX7DY6hhiVBJLy7tZqFC-44" edge="1">
          <mxGeometry relative="1" as="geometry" />
        </mxCell>
        <mxCell id="YX7DY6hhiVBJLy7tZqFC-56" style="edgeStyle=orthogonalEdgeStyle;rounded=0;orthogonalLoop=1;jettySize=auto;html=1;entryX=0;entryY=0.75;entryDx=0;entryDy=0;jumpStyle=arc;jumpSize=17;" parent="51R45vY43iT_jdcogSZ9-1" source="YX7DY6hhiVBJLy7tZqFC-49" target="YX7DY6hhiVBJLy7tZqFC-33" edge="1">
          <mxGeometry relative="1" as="geometry">
            <mxPoint x="-1507" y="-650" as="targetPoint" />
            <Array as="points">
              <mxPoint x="-1453" y="-665" />
            </Array>
          </mxGeometry>
        </mxCell>
        <mxCell id="YX7DY6hhiVBJLy7tZqFC-58" style="edgeStyle=orthogonalEdgeStyle;rounded=0;orthogonalLoop=1;jettySize=auto;html=1;jumpStyle=arc;jumpSize=17;" parent="51R45vY43iT_jdcogSZ9-1" source="YX7DY6hhiVBJLy7tZqFC-49" target="YX7DY6hhiVBJLy7tZqFC-2" edge="1">
          <mxGeometry relative="1" as="geometry">
            <Array as="points">
              <mxPoint x="-1453" y="-405" />
              <mxPoint x="-1453" y="-480" />
            </Array>
          </mxGeometry>
        </mxCell>
        <mxCell id="YX7DY6hhiVBJLy7tZqFC-49" value="UserUpdater" style="rounded=0;whiteSpace=wrap;html=1;fillColor=#ffe6cc;strokeColor=#d79b00;" parent="51R45vY43iT_jdcogSZ9-1" vertex="1">
          <mxGeometry x="-1635" y="-420" width="100" height="30" as="geometry" />
        </mxCell>
        <mxCell id="YX7DY6hhiVBJLy7tZqFC-55" value="&lt;font style=&quot;font-size: 10px&quot;&gt;uses&lt;/font&gt;" style="text;html=1;strokeColor=none;fillColor=none;align=center;verticalAlign=middle;whiteSpace=wrap;rounded=0;" parent="51R45vY43iT_jdcogSZ9-1" vertex="1">
          <mxGeometry x="-1585" y="-345.25" width="40.5" height="20" as="geometry" />
        </mxCell>
        <mxCell id="YX7DY6hhiVBJLy7tZqFC-57" value="&lt;font style=&quot;font-size: 10px&quot;&gt;update&lt;/font&gt;" style="text;html=1;strokeColor=none;fillColor=none;align=center;verticalAlign=middle;whiteSpace=wrap;rounded=0;" parent="51R45vY43iT_jdcogSZ9-1" vertex="1">
          <mxGeometry x="-1520" y="-430" width="60" height="20" as="geometry" />
        </mxCell>
        <mxCell id="YX7DY6hhiVBJLy7tZqFC-59" value="" style="rounded=0;whiteSpace=wrap;html=1;fillColor=none;dashed=1;" parent="51R45vY43iT_jdcogSZ9-1" vertex="1">
          <mxGeometry x="-1876" y="-440" width="356" height="194.25" as="geometry" />
        </mxCell>
        <mxCell id="YX7DY6hhiVBJLy7tZqFC-60" value="Update User Info" style="text;html=1;strokeColor=none;fillColor=none;align=center;verticalAlign=middle;whiteSpace=wrap;rounded=0;dashed=1;fontStyle=1" parent="51R45vY43iT_jdcogSZ9-1" vertex="1">
          <mxGeometry x="-1871" y="-460" width="115" height="20" as="geometry" />
        </mxCell>
        <mxCell id="YX7DY6hhiVBJLy7tZqFC-62" value="" style="rounded=0;whiteSpace=wrap;html=1;fillColor=none;dashed=1;" parent="51R45vY43iT_jdcogSZ9-1" vertex="1">
          <mxGeometry x="-1744.37" y="-712.62" width="130" height="225.25" as="geometry" />
        </mxCell>
        <mxCell id="YX7DY6hhiVBJLy7tZqFC-63" value="User Login" style="text;html=1;strokeColor=none;fillColor=none;align=center;verticalAlign=middle;whiteSpace=wrap;rounded=0;dashed=1;fontStyle=1" parent="51R45vY43iT_jdcogSZ9-1" vertex="1">
          <mxGeometry x="-1744.37" y="-732.62" width="70" height="20" as="geometry" />
        </mxCell>
        <mxCell id="YX7DY6hhiVBJLy7tZqFC-64" style="edgeStyle=orthogonalEdgeStyle;rounded=0;orthogonalLoop=1;jettySize=auto;html=1;entryX=0.5;entryY=1;entryDx=0;entryDy=0;" parent="51R45vY43iT_jdcogSZ9-1" source="YX7DY6hhiVBJLy7tZqFC-65" target="YX7DY6hhiVBJLy7tZqFC-66" edge="1">
          <mxGeometry relative="1" as="geometry" />
        </mxCell>
        <mxCell id="YX7DY6hhiVBJLy7tZqFC-69" style="edgeStyle=orthogonalEdgeStyle;rounded=0;orthogonalLoop=1;jettySize=auto;html=1;entryX=0.5;entryY=0;entryDx=0;entryDy=0;entryPerimeter=0;" parent="51R45vY43iT_jdcogSZ9-1" source="YX7DY6hhiVBJLy7tZqFC-65" target="YX7DY6hhiVBJLy7tZqFC-68" edge="1">
          <mxGeometry relative="1" as="geometry" />
        </mxCell>
        <mxCell id="YX7DY6hhiVBJLy7tZqFC-65" value="UserLogin&lt;br&gt;Controller" style="rounded=0;whiteSpace=wrap;html=1;fillColor=#dae8fc;strokeColor=#6c8ebf;shadow=1;" parent="51R45vY43iT_jdcogSZ9-1" vertex="1">
          <mxGeometry x="-1721.92" y="-627.37" width="90" height="40" as="geometry" />
        </mxCell>
        <mxCell id="YX7DY6hhiVBJLy7tZqFC-66" value="UserLogin&lt;br&gt;StatusSource" style="rounded=0;whiteSpace=wrap;html=1;fillColor=#d5e8d4;strokeColor=#82b366;" parent="51R45vY43iT_jdcogSZ9-1" vertex="1">
          <mxGeometry x="-1721.92" y="-688.37" width="90" height="30" as="geometry" />
        </mxCell>
        <mxCell id="YX7DY6hhiVBJLy7tZqFC-67" value="&lt;font style=&quot;font-size: 10px&quot;&gt;implements&lt;/font&gt;" style="text;html=1;strokeColor=none;fillColor=none;align=center;verticalAlign=middle;whiteSpace=wrap;rounded=0;" parent="51R45vY43iT_jdcogSZ9-1" vertex="1">
          <mxGeometry x="-1734.3700000000003" y="-647.37" width="55.63" height="20" as="geometry" />
        </mxCell>
        <mxCell id="YX7DY6hhiVBJLy7tZqFC-68" value="OAuthStore" style="shape=cylinder3;whiteSpace=wrap;html=1;boundedLbl=1;backgroundOutline=1;size=4.333333333333627;fillColor=#f5f5f5;strokeColor=#666666;fontColor=#333333;" parent="51R45vY43iT_jdcogSZ9-1" vertex="1">
          <mxGeometry x="-1716.92" y="-552.49" width="80" height="41.25" as="geometry" />
        </mxCell>
        <mxCell id="YX7DY6hhiVBJLy7tZqFC-70" value="&lt;font style=&quot;font-size: 10px&quot;&gt;manages&lt;/font&gt;" style="text;html=1;strokeColor=none;fillColor=none;align=center;verticalAlign=middle;whiteSpace=wrap;rounded=0;" parent="51R45vY43iT_jdcogSZ9-1" vertex="1">
          <mxGeometry x="-1736.56" y="-577.37" width="60" height="20" as="geometry" />
        </mxCell>
        <mxCell id="YX7DY6hhiVBJLy7tZqFC-72" value="&lt;font style=&quot;font-size: 10px&quot;&gt;listen to &lt;font&gt;updates&lt;/font&gt;&lt;br&gt;&lt;/font&gt;" style="text;html=1;align=center;verticalAlign=middle;whiteSpace=wrap;rounded=0;" parent="51R45vY43iT_jdcogSZ9-1" vertex="1">
          <mxGeometry x="-1560" y="-700" width="90" height="20" as="geometry" />
        </mxCell>
        <mxCell id="mcuzn89M00Cm7jjjBw46-9" style="edgeStyle=orthogonalEdgeStyle;rounded=0;orthogonalLoop=1;jettySize=auto;html=1;entryX=0;entryY=0.5;entryDx=0;entryDy=0;entryPerimeter=0;" parent="51R45vY43iT_jdcogSZ9-1" source="mcuzn89M00Cm7jjjBw46-0" target="mcuzn89M00Cm7jjjBw46-1" edge="1">
          <mxGeometry relative="1" as="geometry">
            <Array as="points">
              <mxPoint x="-1762" y="-1190" />
            </Array>
          </mxGeometry>
        </mxCell>
        <mxCell id="mcuzn89M00Cm7jjjBw46-10" style="edgeStyle=orthogonalEdgeStyle;rounded=0;orthogonalLoop=1;jettySize=auto;html=1;entryX=0;entryY=0.5;entryDx=0;entryDy=0;entryPerimeter=0;" parent="51R45vY43iT_jdcogSZ9-1" source="mcuzn89M00Cm7jjjBw46-0" target="qQbXcprjhp-LcYu3O835-0" edge="1">
          <mxGeometry relative="1" as="geometry">
            <Array as="points">
              <mxPoint x="-1762" y="-1240" />
            </Array>
          </mxGeometry>
        </mxCell>
        <mxCell id="mcuzn89M00Cm7jjjBw46-0" value="Element&lt;br&gt;GeometryDao" style="rounded=0;whiteSpace=wrap;html=1;fillColor=#dae8fc;strokeColor=#6c8ebf;" parent="51R45vY43iT_jdcogSZ9-1" vertex="1">
          <mxGeometry x="-1782.73" y="-1350" width="80" height="40" as="geometry" />
        </mxCell>
        <mxCell id="mcuzn89M00Cm7jjjBw46-1" value="Relation&lt;br&gt;GeometryDao" style="shape=cylinder3;whiteSpace=wrap;html=1;boundedLbl=1;backgroundOutline=1;size=4.333333333333627;fillColor=#f5f5f5;strokeColor=#666666;fontColor=#333333;" parent="51R45vY43iT_jdcogSZ9-1" vertex="1">
          <mxGeometry x="-1742.45" y="-1210" width="80" height="40" as="geometry" />
        </mxCell>
        <mxCell id="0sawJ3IFaR9pb914Vs4Y-0" value="QuestsHidden&lt;div&gt;Source&lt;/div&gt;" style="rounded=0;whiteSpace=wrap;html=1;fillColor=#d5e8d4;fontStyle=0;strokeColor=#82b366;" parent="51R45vY43iT_jdcogSZ9-1" vertex="1">
          <mxGeometry x="-1153.5" y="-1350" width="90" height="50" as="geometry" />
        </mxCell>
        <mxCell id="0sawJ3IFaR9pb914Vs4Y-3" style="edgeStyle=orthogonalEdgeStyle;rounded=0;orthogonalLoop=1;jettySize=auto;html=1;" parent="51R45vY43iT_jdcogSZ9-1" source="0sawJ3IFaR9pb914Vs4Y-1" target="0sawJ3IFaR9pb914Vs4Y-0" edge="1">
          <mxGeometry relative="1" as="geometry" />
        </mxCell>
        <mxCell id="FaaPZUDsPdvEZ6YP6jF1-4" style="edgeStyle=orthogonalEdgeStyle;rounded=0;orthogonalLoop=1;jettySize=auto;html=1;" edge="1" parent="51R45vY43iT_jdcogSZ9-1" source="0sawJ3IFaR9pb914Vs4Y-1" target="zcpkFRRcYsidM-BZpb4--0">
          <mxGeometry relative="1" as="geometry" />
        </mxCell>
        <mxCell id="0sawJ3IFaR9pb914Vs4Y-1" value="QuestsHidden&lt;div&gt;Controller&lt;/div&gt;" style="rounded=0;whiteSpace=wrap;html=1;fillColor=#dae8fc;strokeColor=#6c8ebf;shadow=0;" parent="51R45vY43iT_jdcogSZ9-1" vertex="1">
          <mxGeometry x="-1153.5" y="-1269" width="90" height="50" as="geometry" />
        </mxCell>
        <mxCell id="0sawJ3IFaR9pb914Vs4Y-4" value="&lt;font style=&quot;font-size: 10px&quot;&gt;implements&lt;/font&gt;" style="text;html=1;strokeColor=none;fillColor=none;align=center;verticalAlign=middle;whiteSpace=wrap;rounded=0;" parent="51R45vY43iT_jdcogSZ9-1" vertex="1">
          <mxGeometry x="-1097" y="-1294" width="40" height="20" as="geometry" />
        </mxCell>
        <mxCell id="Qy5qiiHPJYb9mzbqVUHA-20" style="edgeStyle=orthogonalEdgeStyle;rounded=0;jumpStyle=arc;jumpSize=16;orthogonalLoop=1;jettySize=auto;html=1;exitX=0;exitY=0.5;exitDx=0;exitDy=0;entryX=1;entryY=0.5;entryDx=0;entryDy=0;strokeColor=#000000;fontColor=#FF0000;" parent="51R45vY43iT_jdcogSZ9-1" source="EPvNuUSc4TI7V1zTzWjb-33" target="Qy5qiiHPJYb9mzbqVUHA-12" edge="1">
          <mxGeometry relative="1" as="geometry">
            <Array as="points">
              <mxPoint x="-900" y="-1727" />
              <mxPoint x="-900" y="-1585" />
            </Array>
          </mxGeometry>
        </mxCell>
        <mxCell id="FaaPZUDsPdvEZ6YP6jF1-5" style="edgeStyle=orthogonalEdgeStyle;rounded=0;orthogonalLoop=1;jettySize=auto;html=1;entryX=0.5;entryY=0;entryDx=0;entryDy=0;entryPerimeter=0;" edge="1" parent="51R45vY43iT_jdcogSZ9-1" source="0sawJ3IFaR9pb914Vs4Y-1" target="j30bs2ysJRAmwsAj-f78-0">
          <mxGeometry relative="1" as="geometry" />
        </mxCell>
        <mxCell id="FaaPZUDsPdvEZ6YP6jF1-6" value="&lt;font style=&quot;font-size: 10px&quot;&gt;manages&lt;/font&gt;" style="text;html=1;strokeColor=none;fillColor=none;align=center;verticalAlign=middle;whiteSpace=wrap;rounded=0;" vertex="1" parent="51R45vY43iT_jdcogSZ9-1">
          <mxGeometry x="-1111.6799999999998" y="-1199" width="60" height="20" as="geometry" />
        </mxCell>
        <mxCell id="FaaPZUDsPdvEZ6YP6jF1-8" value="Quests Hidden" style="text;html=1;strokeColor=none;fillColor=none;align=center;verticalAlign=middle;whiteSpace=wrap;rounded=0;dashed=1;fontStyle=1" vertex="1" parent="51R45vY43iT_jdcogSZ9-1">
          <mxGeometry x="-1224.63" y="-1383.25" width="114.63" height="20" as="geometry" />
        </mxCell>
      </root>
    </mxGraphModel>
  </diagram>
</mxfile>
